<?xml version="1.0" encoding="UTF-8" standalone="no"?>
<!-- Created with Inkscape (http://www.inkscape.org/) -->

<svg
   width="21.167mm"
   height="27.113001mm"
   viewBox="0 0 21.167 27.113001"
   version="1.1"
   id="svg1"
   xml:space="preserve"
   xmlns="http://www.w3.org/2000/svg"
   xmlns:svg="http://www.w3.org/2000/svg"><defs
     id="defs1" /><g
     id="layer1"><g
       id="g16"
       transform="translate(-38.260195,-63.005062)"><path
         style="fill:#fde8ab"
         d="m 44.183632,89.500052 -0.714626,-0.562125 -0.588563,-0.959229 -0.588564,-0.959229 -0.509909,-1.190625 -0.50991,-1.190625 -0.744626,-0.947664 -0.744625,-0.947664 -0.534323,-1.406225 -0.534324,-1.406224 -0.226984,-2.673195 -0.226983,-2.673194 0.188253,-4.251207 0.188253,-4.251207 0.603838,-0.848012 0.603838,-0.848012 1.102197,-0.56701 1.102197,-0.56701 2.064561,-0.123266 2.064562,-0.123267 4.153147,0.312466 4.153146,0.312465 1.240231,0.399571 1.24023,0.399571 0.918433,1.016595 0.918433,1.016595 0.312946,1.507455 0.312947,1.507456 -0.186035,1.89195 -0.186034,1.89195 -0.628073,2.001873 -0.628072,2.001873 -1.309256,2.178399 -1.309256,2.178398 -1.850512,2.169729 -1.850513,2.169728 -1.408151,1.354255 -1.408151,1.354254 -1.053606,0.696266 -1.053606,0.696267 H 45.7272 44.898259 Z"
         id="path23" /><path
         style="fill:#f1e085"
         d="m 44.039832,89.365743 -0.893503,-0.751833 -1.047839,-2.236029 -1.047839,-2.23603 -0.51558,-0.545566 -0.515579,-0.545566 -0.375802,-0.717131 -0.375801,-0.717131 -0.406414,-1.752422 -0.406414,-1.752421 0.01037,-5.591188 0.01036,-5.591189 0.595866,-1.199675 0.595865,-1.199675 1.156773,-0.632951 1.156772,-0.63295 1.801075,-0.128866 1.801075,-0.128866 4.318194,0.310165 4.318194,0.310166 1.356365,0.38339 1.356365,0.383391 0.943788,1.044661 0.943789,1.044662 0.213388,1.007974 0.213388,1.007973 -0.04167,2.014682 -0.04167,2.014682 -0.432033,1.689485 -0.432032,1.689485 -0.960548,1.945873 -0.960548,1.945872 -1.22894,1.685701 -1.22894,1.685701 -2.072012,2.276162 -2.072011,2.276162 -1.405715,1.061325 -1.405716,1.061325 -1.015763,0.136243 -1.015763,0.136242 z m 3.436653,-0.746965 0.929798,-0.5982 1.5602,-1.425935 1.5602,-1.425934 -1.034789,-0.184881 -1.03479,-0.184881 -3.770312,-0.187601 -3.770312,-0.187602 v 0.182179 0.18218 l 0.697183,1.380266 0.697184,1.380267 0.515664,0.661458 0.515664,0.661459 0.57309,0.319139 0.573089,0.319139 0.529167,-0.146426 0.529167,-0.146427 z"
         id="path22" /><path
         style="fill:#a6a497"
         d="m 44.039832,89.365743 -0.893503,-0.751833 -1.047839,-2.236029 -1.047839,-2.23603 -0.51558,-0.545566 -0.515579,-0.545566 -0.375802,-0.717131 -0.375801,-0.717131 -0.406414,-1.752422 -0.406414,-1.752421 0.01037,-5.591188 0.01036,-5.591189 0.595866,-1.199675 0.595865,-1.199675 1.156773,-0.632951 1.156772,-0.63295 1.801075,-0.128866 1.801075,-0.128866 4.318194,0.310165 4.318194,0.310166 1.356365,0.38339 1.356365,0.383391 0.943788,1.044661 0.943789,1.044662 0.213388,1.007974 0.213388,1.007973 -0.04167,2.014682 -0.04167,2.014682 -0.432033,1.689485 -0.432032,1.689485 -0.960548,1.945873 -0.960548,1.945872 -1.22894,1.685701 -1.22894,1.685701 -2.072012,2.276162 -2.072011,2.276162 -1.405715,1.061325 -1.405716,1.061325 -1.015763,0.136243 -1.015763,0.136242 z m 3.565007,-0.831906 1.058152,-0.68314 1.419077,-1.341655 1.419077,-1.341656 -1.02202,-0.188559 -1.022021,-0.188558 -3.770312,-0.183359 -3.770312,-0.183359 v 0.182276 0.182276 l 0.697183,1.380266 0.697184,1.380267 0.515664,0.661458 0.515664,0.661459 0.57309,0.319139 0.573089,0.319139 0.529167,-0.146426 0.529167,-0.146427 z m 2.73325,-6.210722 1.075431,-1.653646 0.685356,-1.50065 0.685355,-1.500651 0.408324,-1.938932 0.408325,-1.938933 -0.168843,-1.302537 -0.168843,-1.302536 -0.239287,-0.447113 -0.239288,-0.447114 -0.791075,-0.327673 -0.791074,-0.327674 -2.415525,0.09295 -2.415525,0.09295 -0.352098,0.481742 -0.352099,0.481741 -0.190781,2.544671 -0.190782,2.544672 0.17144,2.230378 0.171441,2.230379 0.414135,1.820813 0.414135,1.820812 h 1.402923 1.402924 z"
         id="path21" /><path
         style="fill:#765785"
         d="m 44.543471,89.671044 -0.680301,-0.369947 -0.697249,-1.008522 -0.697249,-1.008522 -0.584891,-1.455209 -0.584892,-1.455208 -0.603061,-0.661458 -0.603061,-0.661459 -0.527178,-1.192218 -0.527178,-1.192218 -0.278759,-1.718198 -0.278758,-1.718199 0.01377,-4.497916 0.01377,-4.497917 0.214213,-1.305185 0.214213,-1.305185 1.053887,-0.983055 1.053886,-0.983055 1.539779,-0.319657 1.539779,-0.319657 4.78312,0.311863 4.783121,0.311864 1.247099,0.265363 1.247099,0.265363 0.869567,0.577598 0.869568,0.577598 0.595312,1.178406 0.595313,1.178406 v 2.40189 2.401891 l -0.399505,1.576943 -0.399505,1.576942 -1.069567,2.184927 -1.069567,2.184928 -1.575858,2.091321 -1.575858,2.091321 -2.313755,2.34928 -2.313755,2.34928 -1.207142,0.584367 -1.207142,0.584368 -0.379485,-0.01059 -0.379486,-0.01059 z m 3.272479,-1.168996 1.111988,-0.774613 1.294238,-1.327152 1.294238,-1.327153 -0.897363,-0.155379 -0.897363,-0.155379 -3.571875,-0.259871 -3.571875,-0.259872 -0.330729,-6.42e-4 -0.330729,-6.43e-4 v 0.425985 0.425986 l 0.837859,1.571986 0.83786,1.571986 0.797799,0.671303 0.797799,0.671303 0.758083,-0.151616 0.758083,-0.151617 z m 2.170537,-5.505532 0.950497,-1.244828 0.911008,-1.864026 0.911008,-1.864026 0.426799,-1.700206 0.4268,-1.700206 -0.103824,-1.837421 -0.103823,-1.837422 -0.692723,-0.595854 -0.692722,-0.595855 -1.225338,-0.183751 -1.225338,-0.18375 -1.454784,0.181763 -1.454784,0.181763 -0.568386,0.460251 -0.568386,0.460251 -0.114206,3.80751 -0.114205,3.807511 0.293039,1.852083 0.293039,1.852083 0.27528,0.976702 0.27528,0.976703 0.984026,0.103299 0.984027,0.1033 0.318609,0.04448 0.31861,0.04448 z"
         id="path20" /><path
         style="fill:#605963"
         d="M 44.541428,89.669974 43.859085,89.298957 43.148348,88.22496 42.43761,87.150963 41.893386,85.7623 l -0.544225,-1.388664 -0.628197,-0.661458 -0.628197,-0.661459 -0.527178,-1.192218 -0.527178,-1.192218 -0.278759,-1.718198 -0.278758,-1.718199 0.0067,-3.96875 0.0067,-3.96875 0.238314,-1.850745 0.238314,-1.850745 0.926151,-0.848755 0.926152,-0.848754 1.5012,-0.436411 1.501201,-0.436411 2.948073,0.174883 2.948073,0.174884 2.751696,0.262092 2.751696,0.262092 0.942787,0.393922 0.942787,0.393922 0.510072,0.45293 0.510071,0.45293 0.485989,1.058333 0.485988,1.058333 0.0019,2.248959 0.0019,2.248958 -0.38943,1.651661 -0.38943,1.651661 -0.757709,1.671091 -0.757709,1.671091 -1.178757,1.757114 -1.178756,1.757114 -2.203869,2.522316 -2.203868,2.522317 -1.353957,1.044569 -1.353956,1.04457 -0.744176,0.282935 -0.744176,0.282936 -0.313505,-0.01059 -0.313505,-0.01059 z m 3.019714,-0.98334 0.837629,-0.586116 1.521354,-1.326987 1.521354,-1.326988 v -0.187894 -0.187895 l -0.463021,-0.13738 -0.46302,-0.13738 -4.309974,-0.310928 -4.309974,-0.310927 -0.146444,0.146445 -0.146445,0.146445 0.987285,1.878806 0.987284,1.878806 0.805313,0.677626 0.805314,0.677626 0.767858,-0.153571 0.767858,-0.153572 z m 6.123496,-6.349957 1.715309,-2.169251 0.945099,-1.798527 0.945099,-1.798527 0.537701,-1.522326 0.537702,-1.522326 0.131065,-2.778125 0.131066,-2.778125 -0.616537,-1.190625 -0.616538,-1.190625 -1.190625,-0.587453 -1.190625,-0.587452 -2.910416,-0.267705 -2.910417,-0.267705 -2.147976,-0.04944 -2.147977,-0.04944 -0.894731,0.521247 -0.894732,0.521248 -0.661459,1.177099 -0.661458,1.177099 0.02566,5.291666 0.02566,5.291667 0.303139,1.559503 0.303139,1.559502 0.632628,1.381844 0.632629,1.381843 0.983838,0.184569 0.983838,0.184569 0.121677,-0.121677 0.121677,-0.121677 -0.453655,-2.078196 -0.453656,-2.078197 0.01953,-3.96875 0.01953,-3.96875 0.232718,-0.79375 0.232719,-0.79375 0.912592,-0.462609 0.912593,-0.46261 1.926727,-4.11e-4 1.926727,-4.11e-4 0.882965,0.368926 0.882964,0.368926 0.431454,0.615987 0.431454,0.615987 v 2.134498 2.134498 l -0.39467,1.515243 -0.394671,1.515242 -0.694222,1.384617 -0.694222,1.384617 -1.018436,1.504681 -1.018435,1.504681 0.718266,0.109322 0.718265,0.109322 0.462363,0.03964 0.462362,0.03964 z m -3.580411,0.499198 1.061139,-1.405469 0.903238,-1.967968 0.903238,-1.967968 0.326473,-1.482114 0.326474,-1.482114 -0.114277,-1.794679 -0.114276,-1.794679 -0.707838,-0.608856 -0.707837,-0.608856 -1.197199,-0.179531 -1.197199,-0.179531 -1.446733,0.180757 -1.446734,0.180758 -0.587308,0.475573 -0.587308,0.475573 -0.112968,3.976605 -0.112968,3.976606 0.30716,1.813494 0.30716,1.813493 0.26952,0.844852 0.26952,0.844851 0.976633,0.102859 0.976634,0.102859 0.322158,0.04448 0.322158,0.04448 z"
         id="path19" /><path
         style="fill:#421351"
         d="m 44.959188,89.805848 -0.529167,-0.217856 -0.714629,-0.75603 -0.71463,-0.75603 -0.828912,-1.828126 -0.828912,-1.828127 -0.788854,-0.981623 -0.788853,-0.981622 -0.501674,-1.611882 -0.501674,-1.611882 -0.17681,-2.342161 -0.17681,-2.342162 0.194576,-4.151708 0.194576,-4.151709 0.567727,-0.857522 0.567727,-0.857521 1.322535,-0.659329 1.322534,-0.659329 3.018638,0.05308 3.018638,0.05309 3.066778,0.285065 3.066779,0.285065 1.039391,0.311055 1.03939,0.311055 0.846904,0.846904 0.846903,0.846903 0.332883,1.387613 0.332883,1.387612 -0.15409,2.183483 -0.154091,2.183482 -0.687402,2.047735 -0.687402,2.047736 -1.077738,1.845341 -1.077737,1.845342 -1.460995,1.753214 -1.460994,1.753214 -1.881661,1.937458 -1.881661,1.937458 -1.058333,0.614755 -1.058333,0.614755 -0.529167,0.14053 -0.529167,0.140529 z m 2.527887,-1.021761 1.176279,-0.748923 1.541088,-1.412328 1.541088,-1.412327 -0.350463,-0.189086 -0.350463,-0.189086 -3.378435,-0.295496 -3.378435,-0.295497 h -1.317919 -1.317919 l 0.0034,0.198438 0.0034,0.198437 0.804034,1.5875 0.804033,1.5875 0.832018,0.859896 0.832017,0.859896 h 0.690047 0.690047 z m 5.550132,-5.53493 1.111533,-1.256771 0.990992,-1.455208 0.990992,-1.455208 0.667956,-1.322917 0.667956,-1.322917 0.578105,-1.852083 0.578105,-1.852083 0.02108,-2.38125 0.02108,-2.38125 -0.321305,-0.79375 -0.321305,-0.79375 -0.703422,-0.737306 -0.703421,-0.737305 -1.330267,-0.373795 -1.330267,-0.373795 -4.0374,-0.298435 -4.0374,-0.298434 -0.743832,0.163373 -0.743833,0.163373 -0.971099,0.800462 -0.971099,0.800462 -0.435899,1.499439 -0.435899,1.499438 0.149793,5.16397 0.149793,5.163969 0.424397,1.566343 0.424398,1.566342 0.57592,1.024712 0.57592,1.024712 1.333953,-0.0305 1.333954,-0.0305 1.389062,0.188276 1.389063,0.188276 0.0071,-0.235292 0.0071,-0.235292 0.819381,-0.926041 0.819381,-0.926042 -0.729552,1.020874 -0.729552,1.020874 0.366074,0.231845 0.366074,0.231846 0.83741,0.0041 0.83741,0.0041 z m -7.151978,-0.06615 v -0.352778 l 0.176389,0.176389 0.176389,0.176389 -0.176389,0.176389 -0.176389,0.176389 z m -0.243695,-1.212674 0.02089,-0.507118 0.138965,0.347266 0.138964,0.347266 -0.159852,0.159852 -0.159853,0.159853 z m 5.535362,-0.639409 0.283201,-0.529167 h 0.132292 0.132292 l -0.283202,0.529167 -0.283201,0.529166 h -0.132292 -0.132291 z m -5.769253,-0.661459 0.0098,-0.79375 0.12197,0.468057 0.121969,0.468056 -0.131773,0.325694 -0.131774,0.325693 z m 6.29842,-0.264583 V 80.27259 h 0.132291 0.132292 v 0.132292 0.132292 h -0.132292 -0.132291 z m 0.264583,-0.529167 v -0.132291 h 0.132292 0.132291 v 0.132291 0.132292 h -0.132291 -0.132292 z m -6.803492,-1.587499 0.0036,-1.322917 0.110573,0.731242 0.110574,0.731242 -0.114185,0.591675 -0.114186,0.591674 z m 7.076178,1.058333 V 79.08197 l 0.256481,-0.396875 0.25648,-0.396875 v 0.264583 0.264583 l -0.25648,0.396875 -0.256481,0.396875 z m 0.543712,-1.322917 0.01454,-0.264583 0.227391,-0.529167 0.227391,-0.529166 0.01455,0.396875 0.01454,0.396875 -0.256481,0.396875 -0.25648,0.396875 z m 0.527407,-1.874132 0.02089,-0.507118 0.138964,0.347266 0.138964,0.347265 -0.159852,0.159853 -0.159852,0.159852 z M 53.6471,73.393428 v -1.984375 l 0.103786,0.992188 0.103786,0.992187 -0.103786,0.992187 -0.103786,0.992188 z m -8.479946,0.132292 0.0036,-1.322917 0.110573,0.731242 0.110574,0.731242 -0.114185,0.591675 -0.114186,0.591674 z m 0.230685,-2.513542 V 70.35072 l 0.133452,0.330729 0.133452,0.330729 -0.133452,0.330729 -0.133452,0.330729 z m 7.777459,-0.220386 -0.16658,-0.524849 -0.982057,-0.407499 -0.982057,-0.407499 0.343869,-0.01363 0.343868,-0.01363 0.748548,0.387089 0.748548,0.38709 0.170583,0.44453 0.170582,0.44453 -0.114362,0.114361 -0.114361,0.114362 z m -7.360624,-0.870779 0.326319,-0.328765 0.148113,0.148112 0.148112,0.148112 -0.474432,0.180654 -0.474432,0.180653 z m 1.079279,-0.412492 0.347266,-0.138964 0.159852,0.159852 0.159853,0.159852 -0.507118,-0.02089 -0.507118,-0.02089 z m 1.971477,-0.273703 0.731242,-0.110574 0.591674,0.114186 0.591675,0.114185 -1.322917,-0.0036 -1.322916,-0.0036 z"
         id="path18" /><path
         style="fill:#222220"
         d="m 44.959188,89.805848 -0.529167,-0.217856 -0.714629,-0.75603 -0.71463,-0.75603 -0.828912,-1.828126 -0.828912,-1.828127 -0.788854,-0.981623 -0.788853,-0.981622 -0.481102,-1.554941 -0.481101,-1.55494 -0.193657,-2.2173 -0.193657,-2.217301 0.191175,-4.333991 0.191174,-4.333992 0.567403,-0.857041 0.567403,-0.857041 1.302402,-0.64556 1.302401,-0.645559 2.839404,0.03798 2.839405,0.03798 3.398436,0.286156 3.398437,0.286156 1.336949,0.646113 1.336949,0.646113 0.628115,1.11758 0.628116,1.117581 0.109326,1.997311 0.109326,1.99731 -0.414666,1.984375 -0.414667,1.984375 -1.175876,2.38125 -1.175876,2.38125 -1.3367,1.764917 -1.336701,1.764917 -2.29999,2.416896 -2.299991,2.416897 -1.08049,0.619358 -1.08049,0.619357 -0.529167,0.14053 -0.529167,0.140529 z m 2.527887,-1.021761 1.176279,-0.748923 1.541088,-1.412328 1.541088,-1.412327 -0.350463,-0.189086 -0.350463,-0.189086 -3.378435,-0.295496 -3.378435,-0.295497 h -1.317919 -1.317919 l 0.0034,0.198438 0.0034,0.198437 0.804034,1.5875 0.804033,1.5875 0.832018,0.859896 0.832017,0.859896 h 0.690047 0.690047 z m 5.455513,-5.405706 1.039336,-1.127547 1.143904,-1.684474 1.143904,-1.684473 0.860085,-1.884334 0.860085,-1.884333 0.34447,-1.455209 0.34447,-1.455208 0.01557,-2.116667 0.01557,-2.116666 -0.591568,-1.208064 -0.591568,-1.208063 -1.007592,-0.566299 -1.007593,-0.566298 -2.498112,-0.310454 -2.498113,-0.310453 -4.101042,-0.03185 -4.101041,-0.03185 -1.084063,0.580071 -1.084063,0.58007 -0.503437,0.742846 -0.503437,0.742846 0.0048,6.614583 0.0048,6.614583 0.598138,1.490961 0.598138,1.490961 0.65342,0.705053 0.653421,0.705052 2.447795,-0.03155 2.447795,-0.03155 1.240451,0.184364 1.240452,0.184363 0.611632,-0.642006 0.611631,-0.642006 -0.386354,0.492141 -0.386354,0.49214 0.386354,0.24438 0.386354,0.244379 0.826199,0.0041 0.826198,0.0041 z m -7.057359,-0.19537 v -0.352778 l 0.176389,0.176389 0.176389,0.176389 -0.176389,0.176389 -0.176389,0.176389 z m 4.630209,-0.79375 0.163521,-0.264583 h 0.132292 0.132291 l -0.163521,0.264583 -0.163522,0.264583 h -0.132291 -0.132292 z m -4.873904,-0.418924 0.02089,-0.507118 0.138965,0.347266 0.138964,0.347266 -0.159852,0.159852 -0.159853,0.159853 z m 5.535362,-0.639409 0.283201,-0.529167 h 0.132292 0.132292 l -0.283202,0.529167 -0.283201,0.529166 h -0.132292 -0.132291 z m -5.779057,-0.79375 v -0.661459 l 0.133452,0.33073 0.133452,0.330729 -0.133452,0.330729 -0.133452,0.330729 z m 6.308224,-0.132292 v -0.132292 h 0.132291 0.132292 v 0.132292 0.132292 h -0.132292 -0.132291 z m 0.264583,-0.529167 v -0.132291 h 0.132292 0.132291 v 0.132291 0.132292 h -0.132291 -0.132292 z m 0.272686,-0.529166 V 79.08197 l 0.256481,-0.396875 0.25648,-0.396875 v 0.264583 0.264583 l -0.25648,0.396875 -0.256481,0.396875 z m -7.07979,-1.190625 v -1.190625 l 0.114663,0.595312 0.114662,0.595313 -0.114662,0.595312 -0.114663,0.595313 z m 7.600854,-0.264583 v -0.352778 l 0.176389,0.176389 0.176389,0.176389 -0.176389,0.176388 -0.176389,0.176389 z m 0.264583,-0.79375 v -0.352778 l 0.176389,0.176389 0.176389,0.176389 -0.176389,0.176388 -0.176389,0.176389 z m 0.285472,-0.948091 0.02089,-0.507118 0.138964,0.347266 0.138964,0.347265 -0.159852,0.159853 -0.159852,0.159852 z m 0.328381,-2.756076 v -1.719792 l 0.106712,0.859896 0.106712,0.859896 -0.106712,0.859896 -0.106712,0.859896 z m -8.475678,0.132292 0.0036,-1.322917 0.110573,0.731242 0.110574,0.731242 -0.114185,0.591675 -0.114186,0.591674 z m 0.230685,-2.513542 V 70.35072 l 0.133452,0.330729 0.133452,0.330729 -0.133452,0.330729 -0.133452,0.330729 z m 7.796118,-0.14252 -0.164978,-0.429926 0.008,-0.176798 0.008,-0.176798 0.280791,0.482866 0.28079,0.482865 -0.123858,0.123858 -0.123858,0.123858 z m -7.573311,-0.783522 v -0.132291 h 0.132292 0.132291 v 0.132291 0.132292 h -0.132291 -0.132292 z m 6.217708,-0.274138 -0.79375,-0.363452 0.412451,-0.01193 0.412451,-0.01193 0.513591,0.38846 0.513591,0.388461 -0.132292,-0.01308 -0.132292,-0.01307 z m -5.688541,0.0096 v -0.132292 h 0.132291 0.132292 v 0.132292 0.132292 h -0.132292 -0.132291 z m 0.74414,-0.313032 0.347266,-0.138964 0.159852,0.159852 0.159853,0.159852 -0.507118,-0.02089 -0.507118,-0.02089 z m 2.103215,-0.270972 0.598398,-0.115067 0.459936,0.120406 0.459936,0.120406 -1.058334,-0.0053 -1.058333,-0.0053 z"
         id="path17" /></g></g></svg>
