<?xml version="1.0" encoding="UTF-8" standalone="no"?>
<!-- Generator: Adobe Illustrator 24.2.1, SVG Export Plug-In . SVG Version: 6.00 Build 0)  -->

<svg
   version="1.1"
   id="Layer_1"
   x="0px"
   y="0px"
   viewBox="0 0 602.39099 90.75"
   xml:space="preserve"
   sodipodi:docname="Granero-virtual-logo-no-dark.svg"
   width="602.39099"
   height="90.75"
   inkscape:version="1.3.2 (091e20ef0f, 2023-11-25, custom)"
   xmlns:inkscape="http://www.inkscape.org/namespaces/inkscape"
   xmlns:sodipodi="http://sodipodi.sourceforge.net/DTD/sodipodi-0.dtd"
   xmlns="http://www.w3.org/2000/svg"
   xmlns:svg="http://www.w3.org/2000/svg"><defs
   id="defs44" /><sodipodi:namedview
   id="namedview44"
   pagecolor="#ffffff"
   bordercolor="#000000"
   borderopacity="0.25"
   inkscape:showpageshadow="2"
   inkscape:pageopacity="0.0"
   inkscape:pagecheckerboard="0"
   inkscape:deskcolor="#d1d1d1"
   inkscape:zoom="1.2536618"
   inkscape:cx="302.71322"
   inkscape:cy="-7.5778013"
   inkscape:window-width="1920"
   inkscape:window-height="1005"
   inkscape:window-x="0"
   inkscape:window-y="38"
   inkscape:window-maximized="1"
   inkscape:current-layer="Layer_1" />
<style
   type="text/css"
   id="style1">
	.st0{fill:#421152;}
	.st1{fill:#FFEAAD;}
	.st2{fill:#F2BE2D;}
	.st3{fill:#F4AA2E;}
	.st4{fill:#F2E186;stroke:#000000;stroke-miterlimit:10;}
	.st5{fill:none;stroke:#000000;stroke-width:1.612;stroke-miterlimit:10;}
	.st6{fill:#785887;}
	.st7{fill:#C5584D;}
	.st8{fill:#841515;}
	.st9{fill:#F7E6B5;}
	.st10{fill:#CBB051;}
	.st11{fill:#3B648D;}
	.st12{fill:#00365F;}
</style>






<g
   id="g8"
   transform="translate(-128.74,-132.36)">
	<g
   id="g7">
		<path
   class="st0"
   d="m 152.75,190.79 c -4.98,0 -9.21,-0.87 -12.7,-2.6 -3.49,-1.73 -6.19,-4.23 -8.11,-7.51 -1.92,-3.27 -2.96,-7.18 -3.12,-11.73 -0.05,-2.33 -0.08,-4.83 -0.08,-7.5 0,-2.67 0.03,-5.21 0.08,-7.59 0.16,-4.49 1.2,-8.33 3.12,-11.52 1.92,-3.19 4.65,-5.65 8.2,-7.38 3.54,-1.73 7.75,-2.6 12.62,-2.6 3.95,0 7.41,0.53 10.39,1.58 2.97,1.05 5.45,2.41 7.42,4.06 1.97,1.65 3.46,3.42 4.46,5.32 1,1.89 1.53,3.65 1.58,5.27 0.05,0.49 -0.08,0.89 -0.41,1.22 -0.33,0.33 -0.76,0.49 -1.3,0.49 h -8.36 c -0.54,0 -0.95,-0.11 -1.22,-0.33 -0.27,-0.21 -0.51,-0.54 -0.73,-0.97 -0.43,-1.14 -1.11,-2.26 -2.03,-3.37 -0.92,-1.11 -2.16,-2.04 -3.73,-2.8 -1.57,-0.76 -3.6,-1.14 -6.09,-1.14 -3.68,0 -6.61,0.97 -8.8,2.92 -2.19,1.95 -3.37,5.17 -3.53,9.66 -0.16,4.71 -0.16,9.47 0,14.28 0.16,4.6 1.37,7.9 3.61,9.9 2.24,2 5.21,3 8.89,3 2.43,0 4.61,-0.43 6.53,-1.3 1.92,-0.86 3.43,-2.22 4.54,-4.06 1.11,-1.84 1.66,-4.19 1.66,-7.06 v -2.52 h -9.9 c -0.54,0 -1,-0.19 -1.38,-0.57 -0.38,-0.38 -0.57,-0.86 -0.57,-1.46 v -4.3 c 0,-0.59 0.19,-1.08 0.57,-1.46 0.38,-0.38 0.84,-0.57 1.38,-0.57 h 19.39 c 0.59,0 1.07,0.19 1.42,0.57 0.35,0.38 0.53,0.87 0.53,1.46 v 8.52 c 0,4.54 -0.99,8.47 -2.96,11.77 -1.98,3.3 -4.79,5.84 -8.44,7.63 -3.64,1.8 -7.96,2.69 -12.93,2.69 z"
   id="path1" />
		<path
   class="st0"
   d="m 186.82,189.98 c -0.54,0 -1,-0.19 -1.38,-0.57 -0.38,-0.38 -0.57,-0.84 -0.57,-1.38 v -38.22 c 0,-0.59 0.19,-1.08 0.57,-1.46 0.38,-0.38 0.84,-0.57 1.38,-0.57 h 6.57 c 0.54,0 1.01,0.19 1.42,0.57 0.41,0.38 0.61,0.87 0.61,1.46 v 3.33 c 1.24,-1.73 2.85,-3.06 4.83,-3.98 1.97,-0.92 4.26,-1.38 6.86,-1.38 h 3.33 c 0.59,0 1.07,0.19 1.42,0.57 0.35,0.38 0.53,0.84 0.53,1.38 v 5.84 c 0,0.54 -0.18,1 -0.53,1.38 -0.35,0.38 -0.83,0.57 -1.42,0.57 h -6.33 c -2.6,0 -4.61,0.73 -6.05,2.19 -1.43,1.46 -2.15,3.46 -2.15,6 v 22.31 c 0,0.54 -0.19,1 -0.57,1.38 -0.38,0.38 -0.87,0.57 -1.46,0.57 h -7.06 z"
   id="path2" />
		<path
   class="st0"
   d="m 228.69,190.79 c -2.81,0 -5.36,-0.56 -7.63,-1.66 -2.27,-1.11 -4.07,-2.6 -5.4,-4.46 -1.33,-1.87 -1.99,-3.96 -1.99,-6.29 0,-3.79 1.53,-6.8 4.58,-9.05 3.06,-2.24 7.1,-3.75 12.13,-4.5 l 11.12,-1.62 v -1.7 c 0,-2.27 -0.57,-4.03 -1.7,-5.27 -1.14,-1.24 -3.08,-1.87 -5.84,-1.87 -1.95,0 -3.53,0.39 -4.75,1.18 -1.22,0.79 -2.12,1.83 -2.72,3.12 -0.43,0.7 -1.06,1.05 -1.87,1.05 h -6.41 c -0.6,0 -1.04,-0.16 -1.34,-0.49 -0.3,-0.33 -0.45,-0.76 -0.45,-1.3 0.05,-0.86 0.41,-1.92 1.05,-3.16 0.65,-1.24 1.68,-2.45 3.08,-3.61 1.41,-1.16 3.22,-2.15 5.44,-2.96 2.22,-0.81 4.9,-1.22 8.03,-1.22 3.41,0 6.29,0.42 8.64,1.26 2.35,0.84 4.23,1.96 5.64,3.37 1.41,1.41 2.43,3.06 3.08,4.95 0.65,1.89 0.97,3.89 0.97,6 v 25.48 c 0,0.54 -0.19,1 -0.57,1.38 -0.38,0.38 -0.84,0.57 -1.38,0.57 h -6.57 c -0.6,0 -1.07,-0.19 -1.42,-0.57 -0.35,-0.38 -0.53,-0.84 -0.53,-1.38 v -3.17 c -0.7,1.03 -1.65,1.99 -2.84,2.88 -1.19,0.89 -2.64,1.62 -4.34,2.19 -1.66,0.56 -3.68,0.85 -6.01,0.85 z m 2.76,-7.71 c 1.89,0 3.61,-0.41 5.15,-1.22 1.54,-0.81 2.76,-2.07 3.65,-3.77 0.89,-1.7 1.34,-3.85 1.34,-6.45 v -1.7 l -8.11,1.3 c -3.19,0.49 -5.57,1.27 -7.14,2.35 -1.57,1.08 -2.35,2.41 -2.35,3.98 0,1.19 0.37,2.21 1.1,3.04 0.73,0.84 1.66,1.46 2.8,1.87 1.13,0.4 2.32,0.6 3.56,0.6 z"
   id="path3" />
		<path
   class="st0"
   d="m 263.1,189.98 c -0.54,0 -1,-0.19 -1.38,-0.57 -0.38,-0.38 -0.57,-0.84 -0.57,-1.38 v -38.3 c 0,-0.54 0.19,-1 0.57,-1.38 0.38,-0.38 0.84,-0.57 1.38,-0.57 h 6.65 c 0.54,0 1,0.19 1.38,0.57 0.38,0.38 0.57,0.84 0.57,1.38 v 3.33 c 1.41,-1.73 3.21,-3.18 5.4,-4.34 2.19,-1.16 4.91,-1.74 8.15,-1.74 3.3,0 6.17,0.74 8.6,2.23 2.43,1.49 4.31,3.58 5.64,6.29 1.33,2.71 1.99,5.95 1.99,9.74 v 22.8 c 0,0.54 -0.19,1 -0.57,1.38 -0.38,0.38 -0.84,0.57 -1.38,0.57 h -7.14 c -0.54,0 -1,-0.19 -1.38,-0.57 -0.38,-0.38 -0.57,-0.84 -0.57,-1.38 v -22.31 c 0,-3.14 -0.77,-5.6 -2.31,-7.38 -1.54,-1.79 -3.77,-2.68 -6.69,-2.68 -2.81,0 -5.06,0.89 -6.73,2.68 -1.68,1.79 -2.52,4.25 -2.52,7.38 v 22.31 c 0,0.54 -0.19,1 -0.57,1.38 -0.38,0.38 -0.84,0.57 -1.38,0.57 h -7.14 z"
   id="path4" />
		<path
   class="st0"
   d="m 328.34,190.79 c -6,0 -10.76,-1.73 -14.28,-5.19 -3.52,-3.46 -5.41,-8.38 -5.68,-14.77 -0.05,-0.54 -0.08,-1.23 -0.08,-2.07 0,-0.84 0.03,-1.5 0.08,-1.99 0.22,-4.06 1.15,-7.57 2.8,-10.55 1.65,-2.97 3.94,-5.26 6.86,-6.86 2.92,-1.59 6.36,-2.39 10.3,-2.39 4.38,0 8.06,0.91 11.04,2.72 2.97,1.81 5.22,4.33 6.73,7.55 1.51,3.22 2.27,6.94 2.27,11.16 v 1.7 c 0,0.54 -0.19,1 -0.57,1.38 -0.38,0.38 -0.87,0.57 -1.46,0.57 h -26.94 c 0,0.32 0,0.54 0,0.65 0.05,1.89 0.42,3.64 1.1,5.23 0.68,1.6 1.68,2.88 3,3.85 1.33,0.97 2.91,1.46 4.75,1.46 1.51,0 2.79,-0.23 3.81,-0.69 1.03,-0.46 1.87,-0.99 2.51,-1.58 0.65,-0.59 1.11,-1.08 1.38,-1.46 0.49,-0.65 0.88,-1.04 1.18,-1.18 0.3,-0.13 0.74,-0.2 1.34,-0.2 h 6.98 c 0.54,0 0.99,0.16 1.34,0.49 0.35,0.33 0.5,0.73 0.45,1.22 -0.05,0.87 -0.5,1.92 -1.34,3.16 -0.84,1.25 -2.04,2.46 -3.61,3.65 -1.57,1.19 -3.53,2.18 -5.88,2.96 -2.35,0.78 -5.05,1.18 -8.08,1.18 z m -8.93,-25.56 h 17.93 v -0.24 c 0,-2.11 -0.35,-3.95 -1.05,-5.52 -0.7,-1.57 -1.73,-2.81 -3.08,-3.73 -1.35,-0.92 -2.98,-1.38 -4.87,-1.38 -1.89,0 -3.52,0.46 -4.87,1.38 -1.35,0.92 -2.37,2.16 -3.04,3.73 -0.68,1.57 -1.01,3.41 -1.01,5.52 v 0.24 z"
   id="path5" />
		<path
   class="st0"
   d="m 357.31,189.98 c -0.54,0 -1,-0.19 -1.38,-0.57 -0.38,-0.38 -0.57,-0.84 -0.57,-1.38 v -38.22 c 0,-0.59 0.19,-1.08 0.57,-1.46 0.38,-0.38 0.84,-0.57 1.38,-0.57 h 6.57 c 0.54,0 1.01,0.19 1.42,0.57 0.41,0.38 0.61,0.87 0.61,1.46 v 3.33 c 1.24,-1.73 2.85,-3.06 4.83,-3.98 1.97,-0.92 4.26,-1.38 6.86,-1.38 h 3.33 c 0.59,0 1.07,0.19 1.42,0.57 0.35,0.38 0.53,0.84 0.53,1.38 v 5.84 c 0,0.54 -0.18,1 -0.53,1.38 -0.35,0.38 -0.83,0.57 -1.42,0.57 h -6.33 c -2.6,0 -4.61,0.73 -6.05,2.19 -1.43,1.46 -2.15,3.46 -2.15,6 v 22.31 c 0,0.54 -0.19,1 -0.57,1.38 -0.38,0.38 -0.87,0.57 -1.46,0.57 h -7.06 z"
   id="path6" />
		<path
   class="st0"
   d="m 405.67,190.79 c -4.33,0 -7.97,-0.76 -10.91,-2.27 -2.95,-1.51 -5.19,-3.65 -6.73,-6.41 -1.54,-2.76 -2.42,-5.98 -2.64,-9.66 -0.05,-0.97 -0.08,-2.16 -0.08,-3.57 0,-1.41 0.03,-2.6 0.08,-3.57 0.22,-3.73 1.12,-6.96 2.72,-9.7 1.59,-2.73 3.87,-4.85 6.82,-6.37 2.95,-1.51 6.53,-2.27 10.75,-2.27 4.22,0 7.8,0.76 10.75,2.27 2.95,1.52 5.22,3.64 6.82,6.37 1.59,2.73 2.5,5.96 2.72,9.7 0.05,0.97 0.08,2.17 0.08,3.57 0,1.41 -0.03,2.6 -0.08,3.57 -0.22,3.68 -1.1,6.9 -2.64,9.66 -1.54,2.76 -3.79,4.9 -6.73,6.41 -2.97,1.51 -6.61,2.27 -10.93,2.27 z m 0,-8.03 c 2.87,0 5.08,-0.91 6.65,-2.72 1.57,-1.81 2.43,-4.48 2.6,-7.99 0.05,-0.81 0.08,-1.87 0.08,-3.17 0,-1.3 -0.03,-2.35 -0.08,-3.16 -0.16,-3.46 -1.03,-6.11 -2.6,-7.95 -1.57,-1.84 -3.79,-2.76 -6.65,-2.76 -2.87,0 -5.09,0.92 -6.65,2.76 -1.57,1.84 -2.43,4.49 -2.6,7.95 -0.05,0.81 -0.08,1.87 -0.08,3.16 0,1.3 0.03,2.35 0.08,3.17 0.16,3.52 1.03,6.18 2.6,7.99 1.56,1.81 3.78,2.72 6.65,2.72 z"
   id="path7" />
	</g>
</g><g
   id="g14"
   transform="translate(-128.74,-132.36)">
	<path
   d="m 187.79,222.82 -6.83,-18.62 h 3.1 l 5.48,15.52 h 0.29 l 5.44,-15.52 h 3.07 l -6.83,18.62 z"
   id="path8" />
	<path
   d="m 217,198.93 v -3.25 h 3.18 v 3.25 z m 0.08,23.89 V 204.2 h 2.99 v 18.62 z"
   id="path9" />
	<path
   d="M 240.96,222.82 V 204.2 h 2.67 l 0.15,3.58 H 244 c 0.32,-1.05 0.77,-1.85 1.35,-2.41 0.58,-0.56 1.29,-0.94 2.12,-1.15 0.83,-0.21 1.74,-0.31 2.74,-0.31 v 2.92 c -1.68,0 -2.97,0.27 -3.87,0.8 -0.9,0.54 -1.52,1.36 -1.86,2.48 -0.34,1.12 -0.51,2.53 -0.51,4.24 v 8.47 z"
   id="path10" />
	<path
   d="m 270.54,222.82 v -16.1 h -3.76 v -2.52 h 3.76 v -5.4 h 2.96 v 5.4 h 4.46 v 2.52 h -4.46 v 16.1 z"
   id="path11" />
	<path
   d="m 303,223.11 c -1.36,0 -2.46,-0.15 -3.3,-0.44 -0.84,-0.29 -1.48,-0.73 -1.92,-1.31 -0.44,-0.58 -0.74,-1.33 -0.89,-2.25 -0.16,-0.91 -0.24,-2 -0.24,-3.27 v -11.65 h 2.99 v 10.63 c 0,1.24 0.05,2.24 0.15,2.99 0.1,0.75 0.31,1.32 0.64,1.7 0.33,0.38 0.8,0.63 1.41,0.75 0.61,0.12 1.4,0.18 2.37,0.18 1.22,0 2.17,-0.15 2.85,-0.46 0.68,-0.3 1.17,-0.74 1.48,-1.31 0.3,-0.57 0.5,-1.27 0.58,-2.08 0.08,-0.82 0.13,-1.75 0.13,-2.79 v -9.6 h 2.96 v 18.62 h -2.67 l -0.11,-2.67 h -0.26 c -0.24,0.58 -0.6,1.1 -1.08,1.53 -0.48,0.43 -1.13,0.79 -1.95,1.04 -0.83,0.26 -1.87,0.39 -3.14,0.39 z"
   id="path12" />
	<path
   d="m 338.13,223.11 c -1.36,0 -2.5,-0.16 -3.41,-0.47 -0.91,-0.32 -1.6,-0.86 -2.05,-1.64 -0.45,-0.78 -0.67,-1.87 -0.67,-3.29 0,-1.42 0.16,-2.53 0.49,-3.34 0.33,-0.82 0.91,-1.39 1.74,-1.73 0.83,-0.34 1.98,-0.51 3.47,-0.51 0.24,0 0.63,0.01 1.15,0.02 0.52,0.01 1.13,0.02 1.81,0.04 0.68,0.01 1.37,0.02 2.06,0.04 0.69,0.01 1.33,0.03 1.92,0.05 v -1.17 c 0,-1.09 -0.07,-1.95 -0.2,-2.57 -0.13,-0.62 -0.41,-1.08 -0.82,-1.39 -0.41,-0.3 -0.99,-0.5 -1.73,-0.58 -0.74,-0.08 -1.72,-0.13 -2.94,-0.13 -0.54,0 -1.17,0.02 -1.9,0.05 -0.73,0.04 -1.44,0.09 -2.14,0.15 -0.69,0.06 -1.25,0.13 -1.66,0.2 v -2.41 c 0.92,-0.17 1.97,-0.3 3.12,-0.38 1.15,-0.08 2.36,-0.13 3.6,-0.13 1.31,0 2.43,0.08 3.34,0.24 0.91,0.16 1.66,0.41 2.23,0.75 0.57,0.34 1,0.79 1.3,1.35 0.29,0.56 0.49,1.24 0.6,2.04 0.11,0.8 0.16,1.74 0.16,2.81 v 11.72 h -2.67 l -0.11,-2.63 h -0.22 c -0.39,0.85 -0.94,1.49 -1.66,1.92 -0.72,0.43 -1.5,0.7 -2.36,0.82 -0.85,0.11 -1.67,0.17 -2.45,0.17 z m 1.1,-2.45 c 0.71,0 1.36,-0.04 1.97,-0.13 0.61,-0.08 1.14,-0.25 1.61,-0.49 0.46,-0.24 0.83,-0.61 1.1,-1.1 0.27,-0.51 0.46,-1.06 0.57,-1.66 0.11,-0.6 0.16,-1.3 0.16,-2.1 v -0.95 h -6.21 c -0.95,0 -1.68,0.07 -2.19,0.22 -0.51,0.15 -0.86,0.45 -1.04,0.91 -0.18,0.46 -0.27,1.16 -0.27,2.08 0,0.9 0.11,1.58 0.33,2.04 0.22,0.46 0.64,0.77 1.26,0.93 0.62,0.16 1.51,0.25 2.71,0.25 z"
   id="path13" />
	<path
   d="m 368.51,222.82 v -27.13 h 2.99 v 27.13 z"
   id="path14" />
</g><g
   id="g20"
   transform="translate(-128.74,-132.36)">
	<g
   id="g16">
		<path
   class="st1"
   d="m 536.71,156.36 c 0,0 8.91,2.11 15.33,1.2 0,0 -3.07,-16.45 -6.31,-16.88 -3.24,-0.43 -9.02,15.68 -9.02,15.68 z"
   id="path15" />
		<path
   d="m 537.15,156.13 c 0,-0.12 -0.23,-0.25 -0.21,-0.22 l 0.12,0.03 0.23,0.05 0.47,0.1 0.94,0.18 c 0.63,0.12 1.26,0.23 1.89,0.33 1.26,0.2 2.53,0.37 3.8,0.49 2.54,0.23 5.1,0.32 7.59,-0.01 l -0.42,0.59 v 0 c -0.71,-2.98 -1.46,-5.96 -2.36,-8.88 -0.46,-1.45 -0.92,-2.9 -1.51,-4.27 -0.29,-0.68 -0.61,-1.35 -0.99,-1.95 -0.19,-0.29 -0.39,-0.57 -0.6,-0.77 -0.21,-0.21 -0.42,-0.31 -0.48,-0.31 -0.06,-0.02 -0.29,0.06 -0.53,0.24 -0.24,0.17 -0.48,0.42 -0.71,0.68 -0.46,0.53 -0.88,1.14 -1.28,1.77 -0.79,1.26 -1.49,2.62 -2.18,3.98 -0.68,1.36 -1.31,2.76 -1.93,4.16 l -0.92,2.11 -0.44,1.06 -0.23,0.51 -0.11,0.27 -0.05,0.13 -0.03,0.07 c -0.04,0.12 0.07,-0.21 -0.06,-0.34 z m -0.88,0.47 c -0.12,-0.18 0.01,-0.56 -0.01,-0.48 l 0.02,-0.07 0.04,-0.14 0.09,-0.28 0.18,-0.55 0.39,-1.1 0.8,-2.18 c 0.56,-1.44 1.16,-2.88 1.8,-4.3 0.64,-1.42 1.35,-2.81 2.18,-4.17 0.42,-0.68 0.86,-1.35 1.41,-1.99 0.28,-0.32 0.57,-0.63 0.95,-0.92 0.38,-0.27 0.86,-0.59 1.59,-0.56 0.72,0.06 1.18,0.45 1.51,0.78 0.33,0.34 0.58,0.7 0.81,1.06 0.44,0.72 0.77,1.45 1.08,2.18 0.6,1.47 1.09,2.96 1.49,4.46 0.82,3.01 1.46,6.03 1.92,9.11 v 0 l 0.1,0.52 -0.52,0.07 c -2.62,0.35 -5.24,0.26 -7.82,0.02 -1.29,-0.13 -2.58,-0.29 -3.86,-0.5 -0.64,-0.1 -1.28,-0.21 -1.92,-0.33 l -0.95,-0.19 -0.48,-0.1 -0.24,-0.05 -0.12,-0.03 c -0.05,0.03 -0.36,-0.12 -0.44,-0.26 z"
   id="path16" />
	</g>
	<path
   class="st2"
   d="m 536.71,156.1 c 0,0 -7.39,17.4 -8.08,36.9 -0.69,19.51 2.38,24.86 8.08,25.66 5.7,0.8 12.34,0.97 12.34,0.97 0,0 8.58,0.5 8.15,-13.28 -0.42,-13.78 0.54,-41.19 -5.17,-49.04 0.01,-0.01 -6.8,0.86 -15.32,-1.21 z"
   id="path17" />
	<path
   class="st3"
   d="m 548.38,157.64 c 0,0 2.2,5.09 3.16,13.84 0.95,8.74 1.93,31.14 1.47,36.46 -0.46,5.31 -2.18,11.96 -7.76,11.52 0,0 6.62,0.94 8.56,-1.74 1.95,-2.68 3.52,-4.79 3.4,-11.37 -0.12,-6.58 0.1,-19.55 -0.67,-27.97 0,0 -0.12,-13.63 -4.5,-21.08 0,0 -2.8,0.46 -3.66,0.34 z"
   id="path18" />
	<path
   class="st4"
   d="m 541.14,156.96 c 0,0 -7.67,19.43 -5.01,39.95 0,0 0.48,5.43 5.2,5.26 4.73,-0.17 6.24,-1.74 6.23,-5.18 -0.01,-3.44 0.93,-20.44 -2.53,-39.62 z"
   id="path19" />
	<path
   class="st5"
   d="m 537.05,156.1 c 0,0 -7.73,17.39 -8.42,36.9 -0.69,19.51 2.38,24.86 8.08,25.66 5.7,0.8 12.34,0.97 12.34,0.97 0,0 8.58,0.5 8.15,-13.28 -0.42,-13.78 0.35,-41.22 -5.37,-49.07 0.01,-0.01 -6.26,0.9 -14.78,-1.18 z"
   id="path20" />
</g><g
   id="g26"
   transform="translate(-128.74,-132.36)">
	<g
   id="g22">
		<path
   class="st1"
   d="m 606.66,204.9 c 0,0 -18.81,-2.69 -32.51,-2.2 0,0 5.36,16.74 12.22,17.39 6.86,0.65 20.29,-15.19 20.29,-15.19 z"
   id="path21" />
		<path
   d="m 606.2,205.08 c -0.01,0.07 0.01,0.17 0.07,0.23 0.04,0.06 0.16,0.07 0.07,0.06 l -0.25,-0.03 -0.5,-0.07 -1.01,-0.13 -2.02,-0.25 -4.04,-0.46 c -2.7,-0.29 -5.4,-0.53 -8.11,-0.74 -5.41,-0.4 -10.84,-0.65 -16.24,-0.47 l 0.46,-0.65 v 0 c 0.67,1.85 1.45,3.69 2.29,5.48 0.83,1.8 1.74,3.55 2.78,5.21 1.05,1.65 2.18,3.25 3.59,4.49 0.7,0.61 1.47,1.12 2.28,1.38 0.8,0.28 1.62,0.23 2.51,0.02 1.76,-0.45 3.47,-1.46 5.08,-2.55 1.61,-1.11 3.14,-2.37 4.64,-3.65 1.49,-1.3 2.94,-2.66 4.35,-4.06 0.71,-0.69 1.41,-1.4 2.1,-2.11 l 1.03,-1.08 0.51,-0.55 0.25,-0.27 0.12,-0.14 0.06,-0.07 0.02,-0.02 c 0,0 0.01,-0.01 0,0 -0.02,0.02 -0.03,0.04 -0.05,0.07 -0.06,0.09 -0.05,0.27 0.01,0.36 z m 0.93,-0.36 c 0.04,0.11 0.03,0.32 -0.06,0.45 -0.02,0.03 -0.04,0.06 -0.06,0.09 l -0.01,0.02 -0.02,0.02 -0.06,0.07 -0.12,0.15 -0.24,0.29 -0.49,0.58 -0.99,1.14 c -0.66,0.76 -1.34,1.5 -2.02,2.24 -1.38,1.46 -2.81,2.88 -4.3,4.25 -1.49,1.37 -3.05,2.66 -4.72,3.84 -1.68,1.16 -3.45,2.26 -5.58,2.83 -1.04,0.28 -2.31,0.33 -3.4,-0.07 -1.09,-0.37 -2.01,-1.01 -2.81,-1.72 -1.58,-1.44 -2.79,-3.13 -3.82,-4.89 -2.06,-3.53 -3.57,-7.28 -4.76,-11.15 v 0 l -0.2,-0.63 0.66,-0.02 c 5.47,-0.17 10.92,0.08 16.35,0.48 2.72,0.21 5.43,0.46 8.14,0.74 l 4.06,0.46 2.03,0.25 1.01,0.13 0.51,0.07 0.25,0.03 c 0,0 0.2,0.02 0.33,0.09 0.14,0.07 0.25,0.18 0.32,0.26 z"
   id="path22" />
	</g>
	<path
   class="st6"
   d="m 606.65,205.17 c 0,0 16.94,-17.02 19.78,-36.59 2.84,-19.57 -3.3,-25.15 -15.38,-26.32 -12.07,-1.17 -26.18,-1.77 -26.18,-1.77 0,0 -18.21,-1.05 -18.28,12.83 -0.07,13.88 -4.06,41.39 7.54,49.66 0,-0.01 14.54,-0.45 32.52,2.19 z"
   id="path23" />
	<path
   class="st0"
   d="m 581.94,202.87 c 0,0 -4.33,-5.27 -5.74,-14.12 -1.41,-8.86 -1.92,-31.45 -0.56,-36.76 1.35,-5.31 5.47,-11.89 17.33,-11.09 0,0 -14,-1.37 -18.34,1.2 -4.33,2.57 -7.82,4.59 -8.03,11.21 -0.21,6.62 -1.59,19.66 -0.54,28.17 0,0 -0.7,13.72 8.08,21.49 -0.01,0 5.97,-0.29 7.8,-0.1 z"
   id="path24" />
	<path
   class="st4"
   d="m 597.28,204.02 c 0,0 17.68,-19.05 13.47,-39.85 0,0 -0.63,-5.5 -10.69,-5.63 -10.06,-0.13 -13.4,1.34 -13.62,4.81 -0.22,3.46 -3.41,20.49 2.59,40.01 z"
   id="path25" />
	<path
   class="st5"
   d="m 605.92,205.15 c 0,0 17.67,-16.99 20.51,-36.57 2.84,-19.57 -3.3,-25.15 -15.38,-26.32 -12.07,-1.17 -26.18,-1.77 -26.18,-1.77 0,0 -18.21,-1.05 -18.28,12.83 -0.07,13.88 -3.64,41.43 7.96,49.69 0,0 13.39,-0.5 31.37,2.14 z"
   id="path26" />
</g><g
   id="g32"
   transform="translate(-128.74,-132.36)">
	<g
   id="g28">
		<path
   class="st1"
   d="m 715.57,205.41 c 0,0 -17.63,-1.37 -30.25,-0.04 0,0 6.59,15.54 12.99,15.72 6.41,0.18 17.26,-15.68 17.26,-15.68 z"
   id="path27" />
		<path
   d="m 715.12,205.63 c 0,0.07 0.03,0.16 0.09,0.21 0.05,0.05 0.17,0.06 0.08,0.05 l -0.23,-0.02 -0.47,-0.03 -0.94,-0.06 -1.89,-0.11 -3.77,-0.18 c -2.52,-0.1 -5.03,-0.17 -7.55,-0.19 -5.03,-0.04 -10.07,0.07 -15.06,0.57 l 0.41,-0.69 v 0 c 0.79,1.67 1.67,3.32 2.6,4.93 0.92,1.61 1.9,3.18 2.99,4.67 1.09,1.47 2.26,2.9 3.62,4.01 1.37,1.12 2.93,1.85 4.47,1.35 1.6,-0.44 3.13,-1.51 4.53,-2.64 1.41,-1.16 2.73,-2.46 4.01,-3.8 1.28,-1.34 2.5,-2.75 3.69,-4.18 0.6,-0.71 1.19,-1.44 1.77,-2.17 l 0.86,-1.1 0.42,-0.56 0.21,-0.28 0.1,-0.14 0.05,-0.07 0.01,-0.02 0.01,-0.01 c -0.01,0.02 -0.03,0.05 -0.04,0.07 -0.06,0.12 -0.03,0.3 0.03,0.39 z m 0.9,-0.44 c 0.05,0.11 0.05,0.31 -0.02,0.45 -0.02,0.03 -0.03,0.07 -0.05,0.09 l -0.01,0.01 -0.01,0.02 -0.05,0.07 -0.1,0.15 -0.2,0.29 -0.4,0.59 -0.81,1.16 c -0.55,0.77 -1.1,1.53 -1.67,2.28 -1.15,1.5 -2.36,2.96 -3.62,4.37 -1.26,1.42 -2.62,2.76 -4.09,4 -1.49,1.21 -3.07,2.4 -5.11,3 -1.01,0.31 -2.24,0.26 -3.24,-0.12 -1.01,-0.36 -1.87,-0.94 -2.64,-1.58 -1.52,-1.28 -2.75,-2.79 -3.84,-4.36 -2.17,-3.16 -3.87,-6.54 -5.31,-10.06 v 0 l -0.27,-0.62 0.67,-0.07 c 5.05,-0.51 10.12,-0.61 15.18,-0.58 2.53,0.03 5.06,0.09 7.58,0.19 l 3.79,0.18 1.89,0.11 0.95,0.06 0.47,0.03 0.24,0.02 c 0,0 0.2,0.01 0.32,0.07 0.16,0.08 0.28,0.18 0.35,0.25 z"
   id="path28" />
	</g>
	<path
   class="st7"
   d="m 715.58,205.67 c 0,0 13.98,-17.2 14.69,-35.95 0.71,-18.75 -5.51,-23.65 -16.78,-24 -11.27,-0.35 -24.35,-0.03 -24.35,-0.03 0,0 -16.92,0.15 -15.63,13.32 1.29,13.17 0.3,39.51 11.82,46.62 0.01,0 13.39,-1.34 30.25,0.04 z"
   id="path29" />
	<path
   class="st8"
   d="m 692.54,205.04 c 0,0 -4.51,-4.72 -6.68,-13.03 -2.17,-8.31 -4.85,-29.7 -4.12,-34.83 0.73,-5.12 3.89,-11.62 14.92,-11.6 0,0 -13.07,-0.42 -16.82,2.29 -3.75,2.71 -6.77,4.85 -6.32,11.14 0.45,6.29 0.45,18.74 2.26,26.75 0,0 0.69,13.05 9.56,19.87 0,0 5.49,-0.65 7.2,-0.59 z"
   id="path30" />
	<path
   class="st4"
   d="m 706.82,205.16 c 0,0 14.47,-19.18 8.54,-38.64 0,0 -1.12,-5.17 -10.43,-4.67 -9.31,0.5 -12.25,2.11 -12.11,5.41 0.14,3.3 -1.15,19.65 6.31,37.78 z"
   id="path31" />
	<path
   class="st5"
   d="m 714.91,205.69 c 0,0 14.65,-17.23 15.36,-35.97 0.71,-18.74 -5.51,-23.65 -16.78,-24 -11.27,-0.35 -24.35,-0.03 -24.35,-0.03 0,0 -16.92,0.15 -15.63,13.32 1.29,13.17 0.69,39.52 12.21,46.63 0.01,-0.01 12.32,-1.32 29.19,0.05 z"
   id="path32" />
</g><g
   id="g38"
   transform="translate(-128.74,-132.36)">
	<g
   id="g34">
		<path
   class="st1"
   d="m 507.04,199.61 c 0,0 -17.96,-1.11 -30.82,0.15 0,0 6.55,13.76 13.08,13.88 6.53,0.12 17.74,-14.03 17.74,-14.03 z"
   id="path33" />
		<path
   d="m 506.58,199.81 c -0.01,0.08 0.03,0.17 0.1,0.23 0.05,0.06 0.17,0.06 0.09,0.05 l -0.24,-0.01 -0.48,-0.03 -0.96,-0.05 -1.92,-0.09 -3.85,-0.14 c -2.57,-0.07 -5.13,-0.12 -7.7,-0.13 -5.13,0 -10.26,0.12 -15.36,0.6 l 0.4,-0.71 v 0 c 0.82,1.55 1.74,3.08 2.72,4.54 0.96,1.48 1.99,2.91 3.13,4.23 1.14,1.31 2.36,2.56 3.76,3.46 0.7,0.45 1.44,0.79 2.19,0.95 0.75,0.17 1.48,0.1 2.26,-0.11 1.56,-0.43 3.06,-1.35 4.47,-2.34 1.42,-1.01 2.75,-2.16 4.06,-3.34 1.31,-1.19 2.56,-2.44 3.79,-3.72 0.62,-0.64 1.23,-1.28 1.83,-1.94 l 0.89,-0.99 0.44,-0.5 0.22,-0.25 0.11,-0.13 0.05,-0.06 0.01,-0.02 0.01,-0.01 c -0.01,0.01 -0.03,0.04 -0.05,0.07 -0.05,0.15 -0.03,0.35 0.03,0.44 z m 0.92,-0.41 c 0.05,0.11 0.05,0.33 -0.04,0.47 -0.02,0.03 -0.04,0.07 -0.06,0.09 l -0.01,0.01 -0.01,0.02 -0.05,0.07 -0.1,0.13 -0.21,0.27 -0.42,0.53 -0.85,1.05 c -0.57,0.7 -1.15,1.38 -1.74,2.06 -1.2,1.35 -2.44,2.65 -3.74,3.91 -1.3,1.26 -2.68,2.45 -4.15,3.53 -1.49,1.07 -3.06,2.08 -4.96,2.63 -0.93,0.28 -2.03,0.35 -3.03,0.11 -1,-0.23 -1.89,-0.67 -2.69,-1.2 -1.59,-1.07 -2.9,-2.4 -4.05,-3.82 -2.3,-2.86 -4.1,-6 -5.62,-9.29 v 0 l -0.31,-0.65 0.71,-0.07 c 5.15,-0.48 10.31,-0.61 15.46,-0.6 2.58,0.01 5.15,0.05 7.72,0.13 l 3.86,0.14 1.93,0.09 0.96,0.05 0.48,0.03 0.24,0.01 c 0,0 0.2,0.01 0.33,0.07 0.16,0.05 0.28,0.15 0.35,0.23 z"
   id="path34" />
	</g>
	<path
   class="st9"
   d="m 507.05,199.84 c 0,0 14.43,-15.36 15.34,-32.01 0.91,-16.65 -5.37,-20.96 -16.85,-21.21 -11.48,-0.25 -24.82,0.12 -24.82,0.12 0,0 -17.25,0.23 -16.06,11.92 1.18,11.69 -0.1,35.08 11.57,41.32 0,0.01 13.65,-1.26 30.82,-0.14 z"
   id="path35" />
	<path
   class="st10"
   d="m 483.57,199.42 c 0,0 -4.55,-4.16 -6.68,-11.53 -2.12,-7.37 -4.63,-26.35 -3.84,-30.9 0.8,-4.56 4.09,-10.34 15.32,-10.39 0,0 -13.31,-0.29 -17.17,2.14 -3.85,2.43 -6.95,4.35 -6.55,9.93 0.4,5.58 0.27,16.64 2.02,23.74 0,0 0.57,11.59 9.54,17.59 0.02,-0.01 5.62,-0.62 7.36,-0.58 z"
   id="path36" />
	<path
   class="st4"
   d="m 498.12,199.44 c 0,0 14.94,-17.12 9.1,-34.37 0,0 -1.09,-4.59 -10.58,-4.08 -9.49,0.51 -12.51,1.95 -12.4,4.88 0.11,2.93 -1.37,17.45 6.04,33.51 z"
   id="path37" />
	<path
   class="st5"
   d="m 506.36,199.86 c 0,0 15.11,-15.39 16.03,-32.03 0.92,-16.64 -5.37,-20.96 -16.85,-21.21 -11.48,-0.25 -24.82,0.12 -24.82,0.12 0,0 -17.25,0.23 -16.06,11.92 1.18,11.69 0.3,35.09 11.96,41.33 0,0 12.57,-1.25 29.74,-0.13 z"
   id="path38" />
</g><g
   id="g44"
   transform="translate(-128.74,-132.36)">
	<g
   id="g40">
		<path
   class="st1"
   d="m 641.42,160.1 c 0,0 10.02,1.73 17.21,0.68 0,0 -3.61,-15.47 -7.25,-15.78 -3.64,-0.32 -9.96,15.1 -9.96,15.1 z"
   id="path39" />
		<path
   d="m 641.86,159.85 c -0.01,-0.06 -0.06,-0.13 -0.12,-0.18 -0.04,-0.04 -0.17,-0.06 -0.11,-0.05 l 0.13,0.02 0.26,0.04 0.53,0.08 1.06,0.15 2.13,0.26 c 1.42,0.15 2.85,0.27 4.28,0.35 2.85,0.14 5.72,0.15 8.52,-0.24 l -0.41,0.61 v 0 c -0.84,-2.89 -1.73,-5.78 -2.8,-8.58 -0.55,-1.39 -1.11,-2.78 -1.81,-4.05 -0.35,-0.63 -0.74,-1.24 -1.17,-1.74 -0.44,-0.51 -0.93,-0.8 -1.2,-0.72 -0.4,0.06 -0.98,0.5 -1.45,0.99 -0.49,0.5 -0.94,1.07 -1.37,1.66 -0.86,1.19 -1.62,2.48 -2.37,3.78 -0.74,1.3 -1.44,2.64 -2.11,3.99 l -1.01,2.03 -0.49,1.02 -0.24,0.51 -0.12,0.26 -0.06,0.13 -0.03,0.06 c 0,0 -0.02,0.07 0.02,-0.07 0.03,-0.11 -0.01,-0.23 -0.06,-0.31 z m -0.87,0.49 c -0.04,-0.09 -0.07,-0.24 -0.04,-0.36 0.04,-0.16 0.04,-0.12 0.04,-0.14 l 0.03,-0.07 0.05,-0.13 0.1,-0.27 0.21,-0.53 0.43,-1.06 0.9,-2.11 c 0.62,-1.39 1.29,-2.77 2,-4.13 0.71,-1.36 1.49,-2.69 2.38,-3.98 0.45,-0.64 0.93,-1.27 1.5,-1.86 0.59,-0.57 1.19,-1.21 2.3,-1.47 0.59,-0.12 1.23,0.07 1.64,0.34 0.43,0.27 0.75,0.59 1.03,0.91 0.56,0.65 0.97,1.34 1.35,2.04 0.73,1.4 1.32,2.83 1.83,4.29 1,2.91 1.79,5.86 2.39,8.86 v 0 l 0.13,0.53 -0.54,0.07 c -2.91,0.4 -5.83,0.4 -8.72,0.25 -1.45,-0.08 -2.89,-0.2 -4.33,-0.35 l -2.16,-0.26 -1.08,-0.15 -0.54,-0.08 -0.27,-0.04 -0.13,-0.02 c 0.02,0 -0.15,-0.02 -0.24,-0.07 -0.12,-0.06 -0.21,-0.14 -0.26,-0.21 z"
   id="path40" />
	</g>
	<path
   class="st11"
   d="m 641.42,159.84 c 0,0 -8.11,16.68 -8.68,35.16 -0.57,18.48 2.92,23.45 9.33,24.03 6.41,0.58 13.85,0.54 13.85,0.54 0,0 9.63,0.21 9.01,-12.81 -0.62,-13.02 0.18,-38.99 -6.31,-46.24 0.01,0 -7.62,1.03 -17.2,-0.68 z"
   id="path41" />
	<path
   class="st12"
   d="m 654.53,160.95 c 0,0 2.53,4.75 3.69,13 1.16,8.24 2.49,29.41 2.03,34.45 -0.46,5.04 -2.32,11.38 -8.59,11.13 0,0 7.43,0.69 9.59,-1.91 2.16,-2.59 3.9,-4.64 3.69,-10.86 -0.21,-6.22 -0.09,-18.5 -1.04,-26.44 0,0 -0.28,-12.89 -5.26,-19.81 -0.01,0.01 -3.14,0.54 -4.11,0.44 z"
   id="path42" />
	<path
   class="st4"
   d="m 646.4,160.52 c 0,0 -8.4,18.61 -5.21,37.94 0,0 0.59,5.13 5.89,4.82 5.3,-0.31 6.99,-1.83 6.94,-5.09 -0.05,-3.26 0.83,-19.36 -3.25,-37.4 z"
   id="path43" />
	<path
   class="st5"
   d="m 641.8,159.84 c 0,0 -8.49,16.69 -9.06,35.16 -0.57,18.48 2.92,23.45 9.33,24.03 6.41,0.58 13.85,0.54 13.85,0.54 0,0 9.63,0.21 9.01,-12.81 -0.62,-13.02 -0.04,-39 -6.53,-46.26 0,0 -7.01,1.04 -16.6,-0.66 z"
   id="path44" />
</g>
</svg>
