<?xml version="1.0" encoding="utf-8"?>
<!-- Generator: Adobe Illustrator 24.2.1, SVG Export Plug-In . SVG Version: 6.00 Build 0)  -->
<svg version="1.1" id="Layer_1" xmlns="http://www.w3.org/2000/svg" xmlns:xlink="http://www.w3.org/1999/xlink" x="0px" y="0px"
	 viewBox="0 0 426.51 257.31" style="enable-background:new 0 0 426.51 257.31;" xml:space="preserve">
<style type="text/css">
	.st0{fill:#421152;}
	.st1{fill:#FFEAAD;}
	.st2{fill:#F2BE2D;}
	.st3{fill:#F4AA2E;}
	.st4{fill:#F2E186;stroke:#000000;stroke-miterlimit:10;}
	.st5{fill:none;stroke:#000000;stroke-width:1.612;stroke-miterlimit:10;}
	.st6{fill:#785887;}
	.st7{fill:#C5584D;}
	.st8{fill:#841515;}
	.st9{fill:#F7E6B5;}
	.st10{fill:#CBB051;}
	.st11{fill:#3B648D;}
	.st12{fill:#00365F;}
</style>
<g>
	<g>
		<path class="st0" d="M85.5,182.93c-4.98,0-9.21-0.87-12.7-2.6c-3.49-1.73-6.19-4.23-8.11-7.51c-1.92-3.27-2.96-7.18-3.12-11.73
			c-0.05-2.33-0.08-4.83-0.08-7.5s0.03-5.21,0.08-7.59c0.16-4.49,1.2-8.33,3.12-11.52c1.92-3.19,4.65-5.65,8.2-7.38
			c3.54-1.73,7.75-2.6,12.62-2.6c3.95,0,7.41,0.53,10.39,1.58c2.97,1.05,5.45,2.41,7.42,4.06c1.97,1.65,3.46,3.42,4.46,5.32
			c1,1.89,1.53,3.65,1.58,5.27c0.05,0.49-0.08,0.89-0.41,1.22s-0.76,0.49-1.3,0.49H99.3c-0.54,0-0.95-0.11-1.22-0.33
			c-0.27-0.21-0.51-0.54-0.73-0.97c-0.43-1.14-1.11-2.26-2.03-3.37c-0.92-1.11-2.16-2.04-3.73-2.8c-1.57-0.76-3.6-1.14-6.09-1.14
			c-3.68,0-6.61,0.97-8.8,2.92s-3.37,5.17-3.53,9.66c-0.16,4.71-0.16,9.47,0,14.28c0.16,4.6,1.37,7.9,3.61,9.9c2.24,2,5.21,3,8.89,3
			c2.43,0,4.61-0.43,6.53-1.3c1.92-0.86,3.43-2.22,4.54-4.06c1.11-1.84,1.66-4.19,1.66-7.06v-2.52h-9.9c-0.54,0-1-0.19-1.38-0.57
			c-0.38-0.38-0.57-0.86-0.57-1.46v-4.3c0-0.59,0.19-1.08,0.57-1.46c0.38-0.38,0.84-0.57,1.38-0.57h19.39
			c0.59,0,1.07,0.19,1.42,0.57c0.35,0.38,0.53,0.87,0.53,1.46v8.52c0,4.54-0.99,8.47-2.96,11.77c-1.98,3.3-4.79,5.84-8.44,7.63
			C94.79,182.03,90.48,182.93,85.5,182.93z"/>
		<path class="st0" d="M121.21,182.11c-0.54,0-1-0.19-1.38-0.57c-0.38-0.38-0.57-0.84-0.57-1.38v-38.22c0-0.59,0.19-1.08,0.57-1.46
			c0.38-0.38,0.84-0.57,1.38-0.57h6.57c0.54,0,1.01,0.19,1.42,0.57c0.41,0.38,0.61,0.87,0.61,1.46v3.33
			c1.24-1.73,2.85-3.06,4.83-3.98c1.97-0.92,4.26-1.38,6.86-1.38h3.33c0.59,0,1.07,0.19,1.42,0.57c0.35,0.38,0.53,0.84,0.53,1.38
			v5.84c0,0.54-0.18,1-0.53,1.38c-0.35,0.38-0.83,0.57-1.42,0.57h-6.33c-2.6,0-4.61,0.73-6.05,2.19c-1.43,1.46-2.15,3.46-2.15,6
			v22.31c0,0.54-0.19,1-0.57,1.38c-0.38,0.38-0.87,0.57-1.46,0.57H121.21z"/>
		<path class="st0" d="M164.7,182.93c-2.81,0-5.36-0.56-7.63-1.66c-2.27-1.11-4.07-2.6-5.4-4.46c-1.33-1.87-1.99-3.96-1.99-6.29
			c0-3.79,1.53-6.8,4.58-9.05c3.06-2.24,7.1-3.75,12.13-4.5l11.12-1.62v-1.7c0-2.27-0.57-4.03-1.7-5.27
			c-1.14-1.24-3.08-1.87-5.84-1.87c-1.95,0-3.53,0.39-4.75,1.18c-1.22,0.79-2.12,1.83-2.72,3.12c-0.43,0.7-1.06,1.05-1.87,1.05
			h-6.41c-0.6,0-1.04-0.16-1.34-0.49c-0.3-0.33-0.45-0.76-0.45-1.3c0.05-0.86,0.41-1.92,1.05-3.16c0.65-1.24,1.68-2.45,3.08-3.61
			c1.41-1.16,3.22-2.15,5.44-2.96c2.22-0.81,4.9-1.22,8.03-1.22c3.41,0,6.29,0.42,8.64,1.26c2.35,0.84,4.23,1.96,5.64,3.37
			c1.41,1.41,2.43,3.06,3.08,4.95c0.65,1.89,0.97,3.89,0.97,6v25.48c0,0.54-0.19,1-0.57,1.38c-0.38,0.38-0.84,0.57-1.38,0.57h-6.57
			c-0.6,0-1.07-0.19-1.42-0.57c-0.35-0.38-0.53-0.84-0.53-1.38V177c-0.7,1.03-1.65,1.99-2.84,2.88c-1.19,0.89-2.64,1.62-4.34,2.19
			C169.04,182.64,167.02,182.93,164.7,182.93z M167.46,175.22c1.89,0,3.61-0.41,5.15-1.22c1.54-0.81,2.76-2.07,3.65-3.77
			s1.34-3.85,1.34-6.45v-1.7l-8.11,1.3c-3.19,0.49-5.57,1.27-7.14,2.35c-1.57,1.08-2.35,2.41-2.35,3.98c0,1.19,0.37,2.21,1.1,3.04
			c0.73,0.84,1.66,1.46,2.8,1.87C165.02,175.01,166.21,175.22,167.46,175.22z"/>
		<path class="st0" d="M200.73,182.11c-0.54,0-1-0.19-1.38-0.57c-0.38-0.38-0.57-0.84-0.57-1.38v-38.3c0-0.54,0.19-1,0.57-1.38
			c0.38-0.38,0.84-0.57,1.38-0.57h6.65c0.54,0,1,0.19,1.38,0.57c0.38,0.38,0.57,0.84,0.57,1.38v3.33c1.41-1.73,3.21-3.18,5.4-4.34
			c2.19-1.16,4.91-1.74,8.15-1.74c3.3,0,6.17,0.74,8.6,2.23c2.43,1.49,4.31,3.58,5.64,6.29c1.33,2.71,1.99,5.95,1.99,9.74v22.8
			c0,0.54-0.19,1-0.57,1.38c-0.38,0.38-0.84,0.57-1.38,0.57h-7.14c-0.54,0-1-0.19-1.38-0.57c-0.38-0.38-0.57-0.84-0.57-1.38v-22.31
			c0-3.14-0.77-5.6-2.31-7.38c-1.54-1.79-3.77-2.68-6.69-2.68c-2.81,0-5.06,0.89-6.73,2.68c-1.68,1.79-2.52,4.25-2.52,7.38v22.31
			c0,0.54-0.19,1-0.57,1.38c-0.38,0.38-0.84,0.57-1.38,0.57H200.73z"/>
		<path class="st0" d="M267.59,182.93c-6,0-10.76-1.73-14.28-5.19c-3.52-3.46-5.41-8.38-5.68-14.77c-0.05-0.54-0.08-1.23-0.08-2.07
			c0-0.84,0.03-1.5,0.08-1.99c0.22-4.06,1.15-7.57,2.8-10.55c1.65-2.97,3.94-5.26,6.86-6.86c2.92-1.59,6.36-2.39,10.3-2.39
			c4.38,0,8.06,0.91,11.04,2.72c2.97,1.81,5.22,4.33,6.73,7.55c1.51,3.22,2.27,6.94,2.27,11.16v1.7c0,0.54-0.19,1-0.57,1.38
			c-0.38,0.38-0.87,0.57-1.46,0.57h-26.94c0,0.32,0,0.54,0,0.65c0.05,1.89,0.42,3.64,1.1,5.23c0.68,1.6,1.68,2.88,3,3.85
			c1.33,0.97,2.91,1.46,4.75,1.46c1.51,0,2.79-0.23,3.81-0.69c1.03-0.46,1.87-0.99,2.51-1.58c0.65-0.59,1.11-1.08,1.38-1.46
			c0.49-0.65,0.88-1.04,1.18-1.18c0.3-0.13,0.74-0.2,1.34-0.2h6.98c0.54,0,0.99,0.16,1.34,0.49c0.35,0.33,0.5,0.73,0.45,1.22
			c-0.05,0.87-0.5,1.92-1.34,3.16c-0.84,1.25-2.04,2.46-3.61,3.65c-1.57,1.19-3.53,2.18-5.88,2.96S270.62,182.93,267.59,182.93z
			 M258.66,157.37h17.93v-0.24c0-2.11-0.35-3.95-1.05-5.52c-0.7-1.57-1.73-2.81-3.08-3.73c-1.35-0.92-2.98-1.38-4.87-1.38
			s-3.52,0.46-4.87,1.38c-1.35,0.92-2.37,2.16-3.04,3.73c-0.68,1.57-1.01,3.41-1.01,5.52V157.37z"/>
		<path class="st0" d="M298.18,182.11c-0.54,0-1-0.19-1.38-0.57c-0.38-0.38-0.57-0.84-0.57-1.38v-38.22c0-0.59,0.19-1.08,0.57-1.46
			c0.38-0.38,0.84-0.57,1.38-0.57h6.57c0.54,0,1.01,0.19,1.42,0.57c0.41,0.38,0.61,0.87,0.61,1.46v3.33
			c1.24-1.73,2.85-3.06,4.83-3.98c1.97-0.92,4.26-1.38,6.86-1.38h3.33c0.59,0,1.07,0.19,1.42,0.57c0.35,0.38,0.53,0.84,0.53,1.38
			v5.84c0,0.54-0.18,1-0.53,1.38c-0.35,0.38-0.83,0.57-1.42,0.57h-6.33c-2.6,0-4.61,0.73-6.05,2.19c-1.43,1.46-2.15,3.46-2.15,6
			v22.31c0,0.54-0.19,1-0.57,1.38c-0.38,0.38-0.87,0.57-1.46,0.57H298.18z"/>
		<path class="st0" d="M348.16,182.93c-4.33,0-7.97-0.76-10.91-2.27c-2.95-1.51-5.19-3.65-6.73-6.41c-1.54-2.76-2.42-5.98-2.64-9.66
			c-0.05-0.97-0.08-2.16-0.08-3.57c0-1.41,0.03-2.6,0.08-3.57c0.22-3.73,1.12-6.96,2.72-9.7c1.59-2.73,3.87-4.85,6.82-6.37
			c2.95-1.51,6.53-2.27,10.75-2.27s7.8,0.76,10.75,2.27c2.95,1.52,5.22,3.64,6.82,6.37c1.59,2.73,2.5,5.96,2.72,9.7
			c0.05,0.97,0.08,2.17,0.08,3.57c0,1.41-0.03,2.6-0.08,3.57c-0.22,3.68-1.1,6.9-2.64,9.66s-3.79,4.9-6.73,6.41
			C356.13,182.17,352.49,182.93,348.16,182.93z M348.16,174.89c2.87,0,5.08-0.91,6.65-2.72c1.57-1.81,2.43-4.48,2.6-7.99
			c0.05-0.81,0.08-1.87,0.08-3.17c0-1.3-0.03-2.35-0.08-3.16c-0.16-3.46-1.03-6.11-2.6-7.95c-1.57-1.84-3.79-2.76-6.65-2.76
			c-2.87,0-5.09,0.92-6.65,2.76c-1.57,1.84-2.43,4.49-2.6,7.95c-0.05,0.81-0.08,1.87-0.08,3.16c0,1.3,0.03,2.35,0.08,3.17
			c0.16,3.52,1.03,6.18,2.6,7.99C343.08,173.99,345.29,174.89,348.16,174.89z"/>
	</g>
</g>
<g>
	<path d="M125.55,221.95l-6.83-18.62h3.1l5.48,15.52h0.29l5.44-15.52h3.07l-6.83,18.62H125.55z"/>
	<path d="M154.76,198.07v-3.25h3.18v3.25H154.76z M154.83,221.95v-18.62h2.99v18.62H154.83z"/>
	<path d="M178.72,221.95v-18.62h2.67l0.15,3.58h0.22c0.32-1.05,0.77-1.85,1.35-2.41c0.58-0.56,1.29-0.94,2.12-1.15
		s1.74-0.31,2.74-0.31v2.92c-1.68,0-2.97,0.27-3.87,0.8c-0.9,0.54-1.52,1.36-1.86,2.48s-0.51,2.53-0.51,4.24v8.47H178.72z"/>
	<path d="M208.3,221.95v-16.1h-3.76v-2.52h3.76v-5.4h2.96v5.4h4.46v2.52h-4.46v16.1H208.3z"/>
	<path d="M240.76,222.25c-1.36,0-2.46-0.15-3.3-0.44c-0.84-0.29-1.48-0.73-1.92-1.31c-0.44-0.58-0.74-1.33-0.89-2.25
		c-0.16-0.91-0.24-2-0.24-3.27v-11.65h2.99v10.63c0,1.24,0.05,2.24,0.15,2.99c0.1,0.75,0.31,1.32,0.64,1.7
		c0.33,0.38,0.8,0.63,1.41,0.75c0.61,0.12,1.4,0.18,2.37,0.18c1.22,0,2.17-0.15,2.85-0.46c0.68-0.3,1.17-0.74,1.48-1.31
		c0.3-0.57,0.5-1.27,0.58-2.08c0.08-0.82,0.13-1.75,0.13-2.79v-9.6h2.96v18.62h-2.67l-0.11-2.67h-0.26c-0.24,0.58-0.6,1.1-1.08,1.53
		s-1.13,0.79-1.95,1.04C243.07,222.12,242.03,222.25,240.76,222.25z"/>
	<path d="M275.89,222.25c-1.36,0-2.5-0.16-3.41-0.47c-0.91-0.32-1.6-0.86-2.05-1.64c-0.45-0.78-0.67-1.87-0.67-3.29
		s0.16-2.53,0.49-3.34c0.33-0.82,0.91-1.39,1.74-1.73c0.83-0.34,1.98-0.51,3.47-0.51c0.24,0,0.63,0.01,1.15,0.02
		c0.52,0.01,1.13,0.02,1.81,0.04c0.68,0.01,1.37,0.02,2.06,0.04c0.69,0.01,1.33,0.03,1.92,0.05v-1.17c0-1.09-0.07-1.95-0.2-2.57
		s-0.41-1.08-0.82-1.39c-0.41-0.3-0.99-0.5-1.73-0.58c-0.74-0.08-1.72-0.13-2.94-0.13c-0.54,0-1.17,0.02-1.9,0.05
		c-0.73,0.04-1.44,0.09-2.14,0.15c-0.69,0.06-1.25,0.13-1.66,0.2v-2.41c0.92-0.17,1.97-0.3,3.12-0.38s2.36-0.13,3.6-0.13
		c1.31,0,2.43,0.08,3.34,0.24s1.66,0.41,2.23,0.75c0.57,0.34,1,0.79,1.3,1.35c0.29,0.56,0.49,1.24,0.6,2.04s0.16,1.74,0.16,2.81
		v11.72h-2.67l-0.11-2.63h-0.22c-0.39,0.85-0.94,1.49-1.66,1.92s-1.5,0.7-2.36,0.82C277.48,222.19,276.67,222.25,275.89,222.25z
		 M276.99,219.8c0.71,0,1.36-0.04,1.97-0.13c0.61-0.08,1.14-0.25,1.61-0.49c0.46-0.24,0.83-0.61,1.1-1.1
		c0.27-0.51,0.46-1.06,0.57-1.66s0.16-1.3,0.16-2.1v-0.95h-6.21c-0.95,0-1.68,0.07-2.19,0.22c-0.51,0.15-0.86,0.45-1.04,0.91
		c-0.18,0.46-0.27,1.16-0.27,2.08c0,0.9,0.11,1.58,0.33,2.04c0.22,0.46,0.64,0.77,1.26,0.93S275.79,219.8,276.99,219.8z"/>
	<path d="M306.27,221.95v-27.13h2.99v27.13H306.27z"/>
</g>
<g>
	<g>
		<path class="st1" d="M156.75,50.16c0,0,8.91,2.11,15.33,1.2c0,0-3.07-16.45-6.31-16.88C162.53,34.05,156.75,50.16,156.75,50.16z"
			/>
		<path d="M157.19,49.93c0-0.12-0.23-0.25-0.21-0.22l0.12,0.03l0.23,0.05l0.47,0.1l0.94,0.18c0.63,0.12,1.26,0.23,1.89,0.33
			c1.26,0.2,2.53,0.37,3.8,0.49c2.54,0.23,5.1,0.32,7.59-0.01l-0.42,0.59l0,0c-0.71-2.98-1.46-5.96-2.36-8.88
			c-0.46-1.45-0.92-2.9-1.51-4.27c-0.29-0.68-0.61-1.35-0.99-1.95c-0.19-0.29-0.39-0.57-0.6-0.77c-0.21-0.21-0.42-0.31-0.48-0.31
			c-0.06-0.02-0.29,0.06-0.53,0.24c-0.24,0.17-0.48,0.42-0.71,0.68c-0.46,0.53-0.88,1.14-1.28,1.77c-0.79,1.26-1.49,2.62-2.18,3.98
			c-0.68,1.36-1.31,2.76-1.93,4.16l-0.92,2.11l-0.44,1.06l-0.22,0.53l-0.11,0.27l-0.05,0.13l-0.03,0.07
			C157.21,50.39,157.32,50.06,157.19,49.93z M156.31,50.4c-0.12-0.18,0.01-0.56-0.01-0.48l0.02-0.07l0.04-0.14l0.09-0.28l0.18-0.55
			l0.39-1.1l0.8-2.18c0.56-1.44,1.16-2.88,1.8-4.3c0.64-1.42,1.35-2.81,2.18-4.17c0.42-0.68,0.86-1.35,1.41-1.99
			c0.28-0.32,0.57-0.63,0.95-0.92c0.38-0.27,0.86-0.59,1.59-0.56c0.72,0.06,1.18,0.45,1.51,0.78c0.33,0.34,0.58,0.7,0.81,1.06
			c0.44,0.72,0.77,1.45,1.08,2.18c0.6,1.47,1.09,2.96,1.49,4.46c0.82,3.01,1.46,6.03,1.92,9.11l0,0l0.1,0.52l-0.52,0.07
			c-2.62,0.35-5.24,0.26-7.82,0.02c-1.29-0.13-2.58-0.29-3.86-0.5c-0.64-0.1-1.28-0.21-1.92-0.33l-0.96-0.19l-0.48-0.1l-0.24-0.05
			l-0.12-0.03C156.7,50.68,156.39,50.54,156.31,50.4z"/>
	</g>
	<path class="st2" d="M156.75,49.89c0,0-7.39,17.4-8.08,36.9s2.38,24.86,8.08,25.66c5.7,0.8,12.34,0.97,12.34,0.97
		s8.58,0.5,8.15-13.28s0.54-41.19-5.17-49.04C172.08,51.1,165.27,51.97,156.75,49.89z"/>
	<path class="st3" d="M168.42,51.44c0,0,2.2,5.09,3.16,13.84c0.95,8.74,1.93,31.14,1.47,36.46c-0.46,5.31-2.18,11.96-7.76,11.52
		c0,0,6.62,0.94,8.56-1.74c1.95-2.68,3.52-4.79,3.4-11.37c-0.12-6.58,0.1-19.55-0.67-27.97c0,0-0.12-13.63-4.5-21.08
		C172.08,51.1,169.28,51.56,168.42,51.44z"/>
	<path class="st4" d="M161.18,50.76c0,0-7.67,19.43-5.01,39.95c0,0,0.48,5.43,5.2,5.26c4.73-0.17,6.24-1.74,6.23-5.18
		c-0.01-3.44,0.93-20.44-2.53-39.62L161.18,50.76z"/>
	<path class="st5" d="M157.09,49.9c0,0-7.73,17.39-8.42,36.9s2.38,24.86,8.08,25.66c5.7,0.8,12.34,0.97,12.34,0.97
		s8.58,0.5,8.15-13.28s0.35-41.22-5.37-49.07C171.88,51.07,165.61,51.98,157.09,49.9z"/>
</g>
<g>
	<g>
		<path class="st1" d="M226.7,98.7c0,0-18.81-2.69-32.51-2.2c0,0,5.36,16.74,12.22,17.39S226.7,98.7,226.7,98.7z"/>
		<path d="M226.23,98.88c-0.01,0.07,0.01,0.17,0.07,0.23c0.04,0.06,0.16,0.07,0.07,0.06l-0.25-0.03l-0.5-0.07l-1.01-0.13l-2.02-0.25
			l-4.04-0.46c-2.7-0.29-5.4-0.53-8.11-0.74c-5.41-0.4-10.84-0.65-16.24-0.47l0.46-0.65l0,0c0.67,1.85,1.45,3.69,2.29,5.48
			c0.83,1.8,1.74,3.55,2.78,5.21c1.05,1.65,2.18,3.25,3.59,4.49c0.7,0.61,1.47,1.12,2.28,1.38c0.8,0.28,1.62,0.23,2.51,0.02
			c1.76-0.45,3.47-1.46,5.08-2.55c1.61-1.11,3.14-2.37,4.64-3.65c1.49-1.3,2.94-2.66,4.35-4.06c0.71-0.69,1.41-1.4,2.1-2.11
			l1.03-1.08l0.51-0.55l0.25-0.27l0.12-0.14l0.06-0.07l0.02-0.02c0,0,0.01-0.01,0,0c-0.02,0.02-0.03,0.04-0.05,0.07
			C226.17,98.61,226.18,98.79,226.23,98.88z M227.17,98.52c0.04,0.11,0.03,0.32-0.06,0.45c-0.02,0.03-0.04,0.06-0.06,0.09
			l-0.01,0.02l-0.02,0.02l-0.06,0.07l-0.12,0.15l-0.24,0.29l-0.49,0.58l-0.99,1.14c-0.66,0.76-1.34,1.5-2.02,2.24
			c-1.38,1.46-2.81,2.88-4.3,4.25c-1.49,1.37-3.05,2.66-4.72,3.84c-1.68,1.16-3.45,2.26-5.58,2.83c-1.04,0.28-2.31,0.33-3.4-0.07
			c-1.09-0.37-2.01-1.01-2.81-1.72c-1.58-1.44-2.79-3.13-3.82-4.89c-2.06-3.53-3.57-7.28-4.76-11.15l0,0l-0.2-0.63l0.66-0.02
			c5.47-0.17,10.92,0.08,16.35,0.48c2.72,0.21,5.43,0.46,8.14,0.74l4.06,0.46l2.03,0.25l1.01,0.13l0.51,0.07l0.25,0.03
			c0,0,0.2,0.02,0.33,0.09C226.99,98.33,227.1,98.44,227.17,98.52z"/>
	</g>
	<path class="st6" d="M226.68,98.97c0,0,16.94-17.02,19.78-36.59s-3.3-25.15-15.38-26.32c-12.07-1.17-26.18-1.77-26.18-1.77
		s-18.21-1.05-18.28,12.83c-0.07,13.88-4.06,41.39,7.54,49.66C194.17,96.77,208.7,96.33,226.68,98.97z"/>
	<path class="st0" d="M201.98,96.67c0,0-4.33-5.26-5.74-14.12s-1.92-31.45-0.56-36.76c1.35-5.31,5.47-11.89,17.33-11.09
		c0,0-14-1.37-18.34,1.2s-7.82,4.59-8.03,11.21s-1.59,19.66-0.54,28.17c0,0-0.7,13.72,8.08,21.49
		C194.17,96.77,200.15,96.48,201.98,96.67z"/>
	<path class="st4" d="M217.32,97.82c0,0,17.68-19.05,13.47-39.85c0,0-0.63-5.5-10.69-5.63c-10.06-0.13-13.4,1.34-13.62,4.81
		s-3.41,20.49,2.59,40.01L217.32,97.82z"/>
	<path class="st5" d="M225.96,98.94c0,0,17.67-16.99,20.51-36.57s-3.3-25.15-15.38-26.32c-12.07-1.17-26.18-1.77-26.18-1.77
		s-18.21-1.05-18.28,12.83c-0.07,13.88-3.64,41.43,7.96,49.69C194.59,96.81,207.98,96.31,225.96,98.94z"/>
</g>
<g>
	<g>
		<path class="st1" d="M335.61,99.21c0,0-17.63-1.37-30.24-0.04c0,0,6.59,15.54,12.99,15.72
			C324.76,115.07,335.61,99.21,335.61,99.21z"/>
		<path d="M335.16,99.43c0,0.07,0.03,0.16,0.09,0.21c0.05,0.05,0.17,0.06,0.08,0.05l-0.24-0.02l-0.47-0.03l-0.94-0.06l-1.89-0.11
			l-3.77-0.18c-2.52-0.1-5.03-0.17-7.55-0.19c-5.03-0.04-10.07,0.07-15.06,0.57l0.41-0.69l0,0c0.79,1.67,1.67,3.32,2.6,4.93
			c0.92,1.61,1.9,3.18,2.99,4.67c1.09,1.47,2.26,2.9,3.62,4.01c1.37,1.12,2.93,1.85,4.47,1.35c1.6-0.44,3.13-1.51,4.53-2.64
			c1.41-1.16,2.73-2.46,4.01-3.8c1.28-1.34,2.5-2.75,3.69-4.18c0.6-0.71,1.19-1.44,1.77-2.17l0.86-1.1l0.42-0.56l0.21-0.28l0.1-0.14
			l0.05-0.07l0.01-0.02l0.01-0.01c-0.01,0.02-0.03,0.05-0.04,0.07C335.07,99.16,335.1,99.34,335.16,99.43z M336.06,98.99
			c0.05,0.11,0.05,0.31-0.02,0.45c-0.02,0.03-0.03,0.07-0.05,0.09l-0.01,0.01l-0.01,0.02l-0.05,0.07l-0.1,0.15l-0.2,0.29l-0.4,0.59
			l-0.81,1.16c-0.55,0.77-1.1,1.53-1.67,2.28c-1.15,1.5-2.36,2.96-3.62,4.37c-1.26,1.42-2.62,2.76-4.09,4
			c-1.49,1.21-3.07,2.4-5.11,3c-1.01,0.31-2.24,0.26-3.24-0.12c-1.01-0.36-1.87-0.94-2.64-1.58c-1.52-1.28-2.75-2.79-3.84-4.36
			c-2.17-3.16-3.87-6.54-5.31-10.06l0,0l-0.27-0.62l0.67-0.07c5.05-0.51,10.12-0.61,15.18-0.58c2.53,0.03,5.06,0.09,7.58,0.19
			l3.79,0.18l1.89,0.11l0.95,0.06l0.47,0.03l0.24,0.02c0,0,0.2,0.01,0.32,0.07C335.87,98.82,335.99,98.92,336.06,98.99z"/>
	</g>
	<path class="st7" d="M335.62,99.47c0,0,13.98-17.2,14.69-35.95c0.71-18.74-5.51-23.65-16.78-24c-11.26-0.35-24.35-0.03-24.35-0.03
		s-16.92,0.15-15.63,13.32c1.3,13.17,0.3,39.51,11.82,46.62C305.38,99.43,318.76,98.09,335.62,99.47z"/>
	<path class="st8" d="M312.58,98.84c0,0-4.51-4.72-6.68-13.03c-2.17-8.31-4.85-29.7-4.12-34.83s3.89-11.62,14.92-11.6
		c0,0-13.07-0.42-16.82,2.29c-3.75,2.71-6.77,4.85-6.32,11.14c0.45,6.29,0.45,18.74,2.26,26.75c0,0,0.69,13.05,9.56,19.87
		C305.38,99.43,310.87,98.78,312.58,98.84z"/>
	<path class="st4" d="M326.86,98.96c0,0,14.47-19.18,8.54-38.64c0,0-1.12-5.17-10.43-4.67c-9.31,0.51-12.25,2.11-12.11,5.41
		s-1.15,19.65,6.31,37.78L326.86,98.96z"/>
	<path class="st5" d="M334.95,99.49c0,0,14.65-17.23,15.36-35.97c0.71-18.74-5.51-23.65-16.78-24c-11.26-0.35-24.35-0.03-24.35-0.03
		s-16.92,0.15-15.63,13.32c1.3,13.17,0.69,39.52,12.21,46.63C305.77,99.43,318.08,98.12,334.95,99.49z"/>
</g>
<g>
	<g>
		<path class="st1" d="M127.08,93.41c0,0-17.96-1.11-30.82,0.15c0,0,6.55,13.76,13.08,13.88
			C115.86,107.56,127.08,93.41,127.08,93.41z"/>
		<path d="M126.62,93.61c-0.01,0.08,0.03,0.17,0.1,0.23c0.05,0.06,0.17,0.06,0.09,0.05l-0.24-0.01l-0.48-0.03l-0.96-0.05l-1.92-0.09
			l-3.85-0.14c-2.57-0.07-5.13-0.12-7.7-0.13c-5.13,0-10.26,0.12-15.36,0.6l0.4-0.71l0,0c0.82,1.55,1.74,3.08,2.72,4.54
			c0.96,1.48,1.99,2.91,3.13,4.23c1.14,1.31,2.36,2.56,3.76,3.46c0.7,0.45,1.44,0.79,2.19,0.95c0.75,0.17,1.48,0.1,2.26-0.11
			c1.56-0.43,3.06-1.35,4.47-2.34c1.42-1.01,2.75-2.16,4.06-3.34c1.31-1.19,2.56-2.44,3.79-3.72c0.62-0.64,1.23-1.28,1.83-1.94
			l0.89-0.99l0.44-0.5l0.22-0.25l0.11-0.13l0.05-0.06l0.01-0.02l0.01-0.01c-0.01,0.01-0.03,0.04-0.05,0.07
			C126.54,93.32,126.56,93.52,126.62,93.61z M127.54,93.2c0.05,0.11,0.05,0.33-0.04,0.47c-0.02,0.03-0.04,0.07-0.06,0.09l-0.01,0.01
			l-0.01,0.02l-0.05,0.07l-0.1,0.13l-0.21,0.27l-0.42,0.53l-0.85,1.05c-0.57,0.7-1.15,1.38-1.74,2.06c-1.2,1.35-2.44,2.65-3.74,3.91
			c-1.3,1.26-2.68,2.45-4.15,3.53c-1.49,1.07-3.06,2.08-4.96,2.63c-0.93,0.28-2.03,0.35-3.03,0.11c-1-0.23-1.89-0.67-2.69-1.2
			c-1.59-1.07-2.9-2.4-4.05-3.82c-2.3-2.86-4.1-6-5.62-9.29l0,0l-0.31-0.65l0.71-0.07c5.15-0.48,10.31-0.61,15.46-0.6
			c2.58,0.01,5.15,0.05,7.72,0.13l3.86,0.14l1.93,0.09l0.96,0.05l0.48,0.03l0.24,0.01c0,0,0.2,0.01,0.33,0.07
			C127.35,93.02,127.46,93.12,127.54,93.2z"/>
	</g>
	<path class="st9" d="M127.09,93.64c0,0,14.43-15.36,15.34-32.01s-5.37-20.96-16.85-21.21s-24.82,0.12-24.82,0.12
		S83.51,40.77,84.7,52.46c1.18,11.69-0.1,35.08,11.57,41.32C96.26,93.79,109.91,92.52,127.09,93.64z"/>
	<path class="st10" d="M103.61,93.22c0,0-4.55-4.16-6.68-11.53c-2.12-7.37-4.63-26.35-3.84-30.9c0.8-4.56,4.09-10.34,15.32-10.39
		c0,0-13.31-0.29-17.17,2.14c-3.85,2.43-6.95,4.35-6.55,9.93c0.4,5.58,0.27,16.64,2.02,23.74c0,0,0.57,11.59,9.54,17.59
		C96.26,93.79,101.87,93.17,103.61,93.22z"/>
	<path class="st4" d="M118.16,93.24c0,0,14.94-17.12,9.1-34.37c0,0-1.09-4.59-10.58-4.08c-9.49,0.51-12.51,1.95-12.4,4.88
		c0.11,2.93-1.37,17.45,6.04,33.51L118.16,93.24z"/>
	<path class="st5" d="M126.4,93.66c0,0,15.11-15.39,16.03-32.03s-5.37-20.96-16.85-21.21s-24.82,0.12-24.82,0.12
		S83.51,40.77,84.7,52.46c1.18,11.69,0.3,35.09,11.96,41.33C96.66,93.79,109.23,92.54,126.4,93.66z"/>
</g>
<g>
	<g>
		<path class="st1" d="M261.46,53.9c0,0,10.02,1.73,17.21,0.68c0,0-3.61-15.47-7.25-15.78S261.46,53.9,261.46,53.9z"/>
		<path d="M261.9,53.65c-0.01-0.06-0.06-0.13-0.12-0.18c-0.04-0.04-0.17-0.06-0.11-0.05l0.13,0.02l0.26,0.04l0.53,0.08l1.06,0.15
			l2.13,0.26c1.42,0.15,2.85,0.27,4.28,0.35c2.85,0.14,5.72,0.15,8.52-0.24l-0.41,0.61l0,0c-0.84-2.89-1.73-5.78-2.8-8.58
			c-0.55-1.39-1.11-2.78-1.81-4.05c-0.35-0.63-0.74-1.24-1.17-1.74c-0.44-0.51-0.93-0.8-1.2-0.72c-0.4,0.06-0.98,0.5-1.45,0.99
			c-0.49,0.5-0.94,1.07-1.37,1.66c-0.86,1.19-1.62,2.48-2.37,3.78c-0.74,1.3-1.44,2.64-2.11,3.99l-1.01,2.03l-0.49,1.02l-0.24,0.51
			l-0.12,0.26l-0.06,0.13l-0.03,0.06c0,0-0.02,0.07,0.02-0.07C261.99,53.85,261.95,53.73,261.9,53.65z M261.02,54.14
			c-0.04-0.09-0.07-0.24-0.04-0.36c0.04-0.16,0.04-0.12,0.04-0.14l0.03-0.07l0.05-0.13l0.1-0.27l0.21-0.53l0.43-1.06l0.9-2.11
			c0.62-1.39,1.29-2.77,2-4.13c0.71-1.36,1.49-2.69,2.38-3.98c0.45-0.64,0.93-1.27,1.5-1.86c0.59-0.57,1.19-1.21,2.3-1.47
			c0.59-0.12,1.23,0.07,1.64,0.34c0.43,0.27,0.75,0.59,1.03,0.91c0.56,0.65,0.97,1.34,1.35,2.04c0.73,1.4,1.32,2.83,1.83,4.29
			c1,2.91,1.79,5.86,2.39,8.86l0,0l0.13,0.53l-0.54,0.07c-2.91,0.4-5.83,0.4-8.72,0.25c-1.45-0.08-2.89-0.2-4.33-0.35l-2.16-0.26
			l-1.08-0.15l-0.54-0.08l-0.27-0.04l-0.13-0.02c0.02,0-0.15-0.02-0.24-0.07C261.17,54.29,261.08,54.21,261.02,54.14z"/>
	</g>
	<path class="st11" d="M261.46,53.64c0,0-8.11,16.68-8.68,35.16s2.92,23.45,9.33,24.03c6.41,0.58,13.85,0.54,13.85,0.54
		s9.63,0.21,9.01-12.81c-0.62-13.02,0.18-38.99-6.31-46.24C278.66,54.32,271.04,55.35,261.46,53.64z"/>
	<path class="st12" d="M274.56,54.75c0,0,2.53,4.75,3.69,13s2.49,29.41,2.03,34.45s-2.32,11.38-8.59,11.13c0,0,7.43,0.69,9.59-1.91
		c2.16-2.59,3.9-4.64,3.69-10.86c-0.2-6.22-0.09-18.5-1.04-26.44c0,0-0.28-12.89-5.26-19.81C278.66,54.32,275.54,54.84,274.56,54.75
		z"/>
	<path class="st4" d="M266.44,54.32c0,0-8.4,18.61-5.21,37.94c0,0,0.59,5.13,5.89,4.82s6.99-1.83,6.94-5.09s0.83-19.36-3.25-37.4
		L266.44,54.32z"/>
	<path class="st5" d="M261.84,53.63c0,0-8.49,16.69-9.06,35.16s2.92,23.45,9.33,24.03c6.41,0.58,13.85,0.54,13.85,0.54
		s9.63,0.21,9.01-12.81c-0.62-13.02-0.04-39-6.53-46.26C278.44,54.3,271.42,55.34,261.84,53.63z"/>
</g>
</svg>
