<?xml version="1.0" encoding="utf-8"?>
<!-- Generator: Adobe Illustrator 24.2.1, SVG Export Plug-In . SVG Version: 6.00 Build 0)  -->
<svg version="1.1" id="Layer_1" xmlns="http://www.w3.org/2000/svg" xmlns:xlink="http://www.w3.org/1999/xlink" x="0px" y="0px"
	 viewBox="0 0 612 566.93" style="enable-background:new 0 0 612 566.93;" xml:space="preserve">
<style type="text/css">
	.st0{fill:#FFEAAD;}
	.st1{fill:#F2BE2D;}
	.st2{fill:#F4AA2E;}
	.st3{fill:#F2E186;stroke:#000000;stroke-miterlimit:10;}
	.st4{fill:none;stroke:#000000;stroke-width:1.612;stroke-miterlimit:10;}
	.st5{fill:#785887;}
	.st6{fill:#421152;}
	.st7{fill:#C5584D;}
	.st8{fill:#841515;}
	.st9{fill:#F7E6B5;}
	.st10{fill:#CBB051;}
	.st11{fill:#3B648D;}
	.st12{fill:#00365F;}
</style>
<g>
	<path d="M161.74,393.47l16.5-0.1c0.07,0,0.14,0,0.21,0c6.1,0,9.16,2.63,9.16,7.89v25.41c-8.31,2.79-17.5,4.19-27.58,4.19
		c-10.08,0-17.68-3.13-22.79-9.4c-5.11-6.26-7.67-14.8-7.67-25.61c0-10.81,3.18-19.21,9.53-25.22c6.35-6,14.13-9.01,23.32-9.01
		c9.19,0,17.52,2.37,24.97,7.11c-0.21,1.75-0.94,3.47-2.18,5.16c-1.24,1.69-2.61,2.99-4.1,3.89c-5.96-3.83-12.02-5.74-18.16-5.74
		c-6.14,0-10.91,2-14.32,5.99c-3.41,3.99-5.11,10.24-5.11,18.74c0,16.03,6.46,24.05,19.38,24.05c3.76,0,7.7-0.42,11.82-1.27v-9.25
		c0-2.92,0.07-5.06,0.21-6.43h-7.77c-2.2,0-3.82-0.4-4.84-1.22c-1.03-0.81-1.54-2.11-1.54-3.89
		C160.78,396.99,161.1,395.22,161.74,393.47z"/>
	<path d="M194.11,386.85c0.28-1.1,0.87-2.29,1.76-3.55c0.89-1.27,1.79-2.19,2.72-2.77c5.54,0.78,9.26,3.67,11.18,8.67
		c2.84-5.78,7.42-8.67,13.74-8.67c1.63,0,3.69,0.23,6.18,0.68c0,4.22-1.06,7.98-3.19,11.29c-1.06-0.26-2.66-0.45-4.79-0.58
		c-4.33,0-7.81,2.11-10.44,6.33v31.25c-1.99,0.32-4.15,0.49-6.5,0.49s-4.58-0.16-6.71-0.49v-32.62
		C198.05,392.14,196.74,388.79,194.11,386.85z"/>
	<path d="M274.93,424.04c-0.36,1.1-0.98,2.26-1.86,3.46c-0.89,1.2-1.79,2.12-2.72,2.78c-4.4-0.46-7.63-2.34-9.69-5.65
		c-4.69,4.15-9.76,6.23-15.23,6.23c-5.47,0-9.58-1.46-12.35-4.38s-4.15-6.29-4.15-10.12c0-5.45,1.93-9.56,5.8-12.32
		c3.87-2.76,8.82-4.14,14.85-4.14c3.26,0,6.35,0.13,9.26,0.39v-2.92c0-5.13-2.7-7.69-8.09-7.69c-3.83,0-9.26,1.17-16.29,3.5
		c-2.06-2.01-3.23-4.9-3.51-8.67c7.67-2.92,15.33-4.38,23-4.38c5.32,0,9.65,1.36,12.99,4.09c3.34,2.73,5,6.85,5,12.37v19.86
		C271.95,420.02,272.94,422.55,274.93,424.04z M248.2,421.6c3.69,0,7.24-1.56,10.65-4.67v-8.67c-2.49-0.26-5.18-0.39-8.09-0.39
		c-2.91,0-5.11,0.68-6.6,2.04c-1.49,1.36-2.24,3.08-2.24,5.16c0,2.08,0.57,3.68,1.7,4.82C244.76,421.04,246.29,421.6,248.2,421.6z"
		/>
	<path d="M325.83,396.88v21.61c0,3.96,0.71,7.01,2.13,9.15c-2.34,1.69-4.95,2.53-7.83,2.53s-4.85-0.62-5.91-1.85
		c-1.06-1.23-1.6-3.15-1.6-5.75v-23.17c0-2.92-0.43-5.01-1.28-6.28s-2.38-1.9-4.58-1.9c-4.05,0-7.77,1.62-11.18,4.87v33.4
		c-1.99,0.32-4.15,0.49-6.5,0.49c-2.34,0-4.58-0.16-6.71-0.49V381.3l0.75-0.58h4.9c4.05,0,6.46,1.95,7.24,5.84
		c5.18-4.15,10.35-6.23,15.49-6.23c5.15,0,8.95,1.53,11.39,4.58C324.61,387.95,325.83,391.94,325.83,396.88z"/>
	<path d="M376.19,409.24h-29.81c0.21,3.83,1.15,6.8,2.82,8.91c1.67,2.11,4.6,3.16,8.79,3.16c4.19,0,8.84-1.13,13.95-3.41
		c1.99,1.75,3.26,4.22,3.83,7.4c-5.68,3.7-12.51,5.55-20.5,5.55s-13.72-2.37-17.2-7.11c-3.48-4.74-5.22-10.87-5.22-18.4
		c0-7.53,1.92-13.66,5.75-18.4c3.83-4.74,9.32-7.11,16.45-7.11c7.13,0,12.62,1.96,16.45,5.89c3.83,3.93,5.75,8.88,5.75,14.85
		C377.26,403.56,376.9,406.45,376.19,409.24z M355.64,388.6c-5.82,0-8.94,4.03-9.37,12.07h18.53v-1.17c0-3.25-0.75-5.87-2.24-7.89
		C361.07,389.61,358.77,388.6,355.64,388.6z"/>
	<path d="M382.05,386.85c0.28-1.1,0.87-2.29,1.76-3.55c0.89-1.27,1.79-2.19,2.71-2.77c5.54,0.78,9.26,3.67,11.18,8.67
		c2.84-5.78,7.42-8.67,13.74-8.67c1.63,0,3.69,0.23,6.18,0.68c0,4.22-1.07,7.98-3.19,11.29c-1.07-0.26-2.66-0.45-4.79-0.58
		c-4.33,0-7.81,2.11-10.44,6.33v31.25c-1.99,0.32-4.15,0.49-6.5,0.49c-2.34,0-4.58-0.16-6.71-0.49v-32.62
		C385.99,392.14,384.68,388.79,382.05,386.85z"/>
	<path d="M465,405.35c0,8.7-2.52,15.35-7.56,19.96c-4.05,3.7-9.39,5.55-16.03,5.55c-6.64,0-11.98-1.85-16.03-5.55
		c-5.04-4.61-7.56-11.26-7.56-19.96c0-8.7,2.52-15.35,7.56-19.96c4.05-3.7,9.39-5.55,16.03-5.55c6.64,0,11.98,1.85,16.03,5.55
		C462.48,390,465,396.65,465,405.35z M441.42,388.99c-6.71,0-10.06,5.45-10.06,16.36s3.35,16.36,10.06,16.36
		c6.71,0,10.06-5.45,10.06-16.36S448.12,388.99,441.42,388.99z"/>
</g>
<g>
	<path d="M217.93,465.3l4.16-14.22c0.3-0.09,0.74-0.14,1.34-0.14c0.6,0,1.13,0.08,1.61,0.24l0.1,0.14
		c-2.27,7.3-4.06,12.87-5.39,16.69c-0.6,0.11-1.32,0.17-2.16,0.17c-0.85,0-1.44-0.12-1.77-0.36c-0.33-0.24-0.62-0.75-0.88-1.53
		l-4.84-14.97c0.71-0.32,1.35-0.48,1.92-0.48c0.94,0,1.53,0.46,1.79,1.37l2.4,7.69c0.53,1.65,0.98,3.35,1.37,5.12
		C217.63,465.21,217.74,465.3,217.93,465.3z"/>
	<path d="M245.88,453.9v14.11c-0.39,0.09-0.94,0.14-1.65,0.14s-1.26-0.05-1.65-0.14v-12.74c0-0.62-0.11-1.06-0.33-1.34
		c-0.22-0.28-0.6-0.41-1.15-0.41h-0.38c-0.09-0.34-0.14-0.73-0.14-1.17c0-0.43,0.05-0.85,0.14-1.24c0.73-0.09,1.42-0.14,2.06-0.14
		h0.45c0.82,0,1.47,0.26,1.94,0.77C245.64,452.26,245.88,452.98,245.88,453.9z M241.52,446.38c0-0.57,0.09-1.06,0.27-1.48
		c0.48-0.27,1.11-0.41,1.89-0.41s1.36,0.14,1.75,0.41c0.18,0.41,0.27,0.91,0.27,1.48c0,0.57-0.09,1.06-0.27,1.48
		c-0.39,0.28-0.98,0.41-1.79,0.41c-0.8,0-1.42-0.14-1.85-0.41C241.61,447.44,241.52,446.95,241.52,446.38z"/>
	<path d="M264.15,452.62c0.18-0.78,0.6-1.37,1.24-1.79c1.51,0.37,2.51,1.38,2.99,3.06c0.94-2.04,2.44-3.06,4.5-3.06
		c0.55,0,1.14,0.07,1.79,0.21c0,1.24-0.26,2.28-0.79,3.12c-0.14-0.02-0.6-0.07-1.37-0.14c-1.6,0-2.86,0.89-3.78,2.68v11.3
		c-0.39,0.09-0.94,0.14-1.67,0.14s-1.28-0.05-1.67-0.14v-11.88C265.38,454.57,264.97,453.4,264.15,452.62z"/>
	<path d="M300.17,451.05c0.09,0.39,0.14,0.81,0.14,1.25s-0.05,0.85-0.14,1.22l-4.29-0.04v10.54c0,0.98,0.47,1.48,1.41,1.48h2.4
		c0.18,0.44,0.27,0.91,0.27,1.42c0,0.52-0.01,0.84-0.03,0.98c-1.33,0.16-2.59,0.24-3.78,0.24c-2.33,0-3.5-1.12-3.5-3.37v-11.3
		l-2.51,0.04c-0.09-0.37-0.14-0.77-0.14-1.22s0.05-0.86,0.14-1.25l2.51,0.03v-3.12c0-0.78,0.13-1.33,0.38-1.65
		c0.25-0.32,0.72-0.48,1.41-0.48h1.24l0.21,0.21v5.08L300.17,451.05z"/>
	<path d="M317.55,462.76v-8.14c0-1.33-0.18-2.35-0.55-3.06c0.53-0.46,1.17-0.69,1.92-0.69s1.26,0.17,1.53,0.51
		c0.26,0.34,0.39,0.88,0.39,1.61v8.89c0,1.24,0.16,2.12,0.48,2.64c0.32,0.53,0.88,0.79,1.67,0.79s1.6-0.21,2.42-0.62
		s1.56-0.96,2.2-1.65v-11.98c0.59-0.09,1.14-0.14,1.65-0.14c0.5,0,1.05,0.05,1.65,0.14v12.16c0,1.65,0.32,2.76,0.96,3.33
		c-0.21,0.76-0.63,1.32-1.27,1.68c-1.4-0.3-2.3-1.13-2.71-2.51c-1.72,1.72-3.66,2.58-5.84,2.58c-1.51,0-2.64-0.51-3.38-1.54
		S317.55,464.4,317.55,462.76z"/>
	<path d="M363.18,466.53c-0.23,0.8-0.66,1.37-1.3,1.72c-1.26-0.25-2.13-0.98-2.61-2.2c-1.65,1.6-3.33,2.4-5.05,2.4
		c-1.72,0-3.02-0.5-3.9-1.51c-0.88-1.01-1.32-2.19-1.32-3.54c0-1.88,0.6-3.29,1.8-4.24c1.2-0.95,2.79-1.42,4.76-1.42
		c1.17,0,2.3,0.08,3.4,0.24v-1.41c0-2.08-0.96-3.12-2.88-3.12c-1.49,0-3.31,0.45-5.46,1.34c-0.62-0.62-0.95-1.44-1-2.47
		c2.4-1.05,4.75-1.58,7.04-1.58c1.76,0,3.13,0.48,4.1,1.44c0.97,0.96,1.46,2.39,1.46,4.29v7.04
		C362.22,464.98,362.54,465.98,363.18,466.53z M354.74,465.78c1.53,0,2.94-0.74,4.22-2.23v-3.3c-0.89-0.11-1.92-0.17-3.09-0.17
		c-1.17,0-2.05,0.27-2.64,0.82c-0.6,0.55-0.89,1.26-0.89,2.13s0.21,1.55,0.64,2.03C353.39,465.54,353.98,465.78,354.74,465.78z"/>
	<path d="M385.85,465.5h1.34c0.18,0.5,0.28,0.96,0.28,1.37s-0.02,0.75-0.07,1.03c-0.92,0.16-1.87,0.24-2.85,0.24
		c-2.18,0-3.26-1.12-3.26-3.37v-21.81l0.21-0.21h1.24c0.69,0,1.16,0.16,1.41,0.48c0.25,0.32,0.38,0.87,0.38,1.65v19.09
		C384.51,465,384.96,465.5,385.85,465.5z"/>
</g>
<g>
	<g>
		<path class="st0" d="M254.95,174.24c0,0-3.52,23.62-1.81,40.62c0,0,28.74-8.06,29.44-16.65
			C283.26,189.63,254.95,174.24,254.95,174.24z"/>
		<path d="M255.17,174.69c0.06,0.02,0.14,0,0.18-0.03c0.04-0.02,0.06-0.12,0.04-0.03l-0.04,0.31l-0.09,0.63l-0.17,1.26l-0.31,2.52
			c-0.2,1.68-0.38,3.37-0.54,5.05c-0.33,3.37-0.59,6.75-0.79,10.13c-0.36,6.76-0.46,13.55,0.17,20.28l-0.63-0.43l0,0
			c2.87-0.88,5.72-1.88,8.52-2.95c2.81-1.05,5.6-2.19,8.3-3.47c2.69-1.29,5.36-2.67,7.73-4.4c1.18-0.86,2.29-1.82,3.13-2.92
			c0.85-1.11,1.29-2.33,1-3.57c-0.29-1.27-1.06-2.52-1.94-3.66c-0.89-1.15-1.91-2.22-2.98-3.24c-2.15-2.04-4.52-3.89-6.92-5.68
			c-2.41-1.78-4.91-3.46-7.44-5.09c-1.26-0.82-2.53-1.62-3.82-2.41l-1.93-1.17l-0.97-0.57l-0.49-0.28l-0.24-0.14l-0.12-0.07
			c0,0-0.1-0.04,0.04,0.01C254.96,174.79,255.1,174.75,255.17,174.69z M254.72,173.8c0.11-0.04,0.29-0.05,0.43,0
			c0.18,0.07,0.12,0.06,0.16,0.07l0.13,0.07l0.25,0.13l0.5,0.27l1,0.55l1.98,1.11c1.32,0.75,2.62,1.52,3.92,2.3
			c2.58,1.58,5.13,3.24,7.61,5c2.48,1.76,4.89,3.64,7.13,5.74c1.12,1.05,2.19,2.17,3.17,3.4c0.95,1.24,1.86,2.6,2.26,4.29
			c0.2,0.83,0.18,1.81-0.1,2.64c-0.27,0.84-0.7,1.58-1.2,2.23c-1,1.3-2.22,2.31-3.48,3.23c-2.53,1.8-5.25,3.22-8.03,4.48
			c-5.56,2.5-11.31,4.44-17.17,6.04l0,0l-0.58,0.16l-0.06-0.59c-0.64-6.81-0.54-13.64-0.18-20.43c0.2-3.4,0.46-6.79,0.79-10.18
			c0.17-1.69,0.35-3.38,0.55-5.07l0.31-2.53l0.17-1.27l0.09-0.63l0.04-0.32c0-0.01,0.03-0.22,0.09-0.34
			C254.55,174,254.64,173.88,254.72,173.8z"/>
	</g>
	<path class="st1" d="M255.42,174.24c0,0-30.59-19.66-64.75-21.56s-43.47,6.2-44.76,21.31c-1.29,15.11-1.46,32.7-1.46,32.7
		s-0.71,22.74,23.41,21.67s72.12,1.61,85.76-13.5C253.6,214.87,251.94,196.83,255.42,174.24z"/>
	<path class="st2" d="M252.94,205.17c0,0-8.88,5.82-24.17,8.31s-54.48,5-63.79,3.75c-9.31-1.24-20.98-5.82-20.31-20.63
		c0,0-1.51,17.53,3.21,22.71c4.73,5.18,8.46,9.34,19.97,9.05c11.51-0.29,34.23,0.35,48.94-1.67c0,0,23.86-0.26,36.81-11.83
		C253.6,214.87,252.73,207.46,252.94,205.17z"/>
	<path class="st3" d="M253.99,185.99c0,0-34.16-20.41-70.03-13.44c0,0-9.5,1.24-9.12,13.77s3.15,16.56,9.18,16.54
		c6.03-0.02,35.79,2.54,69.3-6.55L253.99,185.99z"/>
	<path class="st4" d="M255.42,175.15c0,0-30.59-20.56-64.75-22.47s-43.47,6.2-44.76,21.31c-1.29,15.11-1.46,32.7-1.46,32.7
		s-0.71,22.74,23.41,21.67s72.16,1.09,85.79-14.03C253.64,214.34,251.94,197.73,255.42,175.15z"/>
</g>
<g>
	<g>
		<path class="st0" d="M260.95,231.46c0,0,19.86,13.18,35.87,19.14c0,0,4.27-27.38-3.19-31.68
			C286.17,214.61,260.95,231.46,260.95,231.46z"/>
		<path d="M261.45,231.45c0.05-0.05,0.06-0.13,0.05-0.19c0-0.05-0.09-0.11-0.01-0.05l0.27,0.17l0.53,0.35l1.07,0.69l2.15,1.35
			c1.44,0.9,2.88,1.78,4.34,2.65c2.91,1.74,5.85,3.42,8.82,5.05c5.95,3.23,12.02,6.26,18.34,8.65l-0.67,0.39l0,0
			c0.36-2.82,0.61-5.68,0.78-8.53c0.18-2.85,0.26-5.7,0.18-8.54c-0.1-2.83-0.29-5.67-0.94-8.37c-0.33-1.34-0.77-2.66-1.46-3.76
			c-0.69-1.13-1.61-1.9-2.83-2.14c-1.23-0.27-2.61-0.17-3.96,0.06c-1.36,0.24-2.71,0.61-4.05,1.06c-2.67,0.89-5.28,2.04-7.85,3.26
			c-2.57,1.23-5.09,2.57-7.58,3.97c-1.25,0.69-2.49,1.4-3.72,2.13l-1.84,1.1l-0.91,0.56l-0.45,0.28l-0.23,0.14l-0.11,0.07
			c0-0.01-0.09,0.07,0.02-0.03C261.44,231.69,261.47,231.55,261.45,231.45z M260.45,231.46c0.01-0.12,0.09-0.29,0.2-0.39
			c0.15-0.13,0.1-0.07,0.14-0.1l0.11-0.08l0.22-0.15l0.45-0.3l0.9-0.6l1.81-1.17c1.21-0.77,2.44-1.53,3.67-2.27
			c2.48-1.47,5-2.86,7.59-4.16c2.58-1.3,5.24-2.47,8-3.42c1.38-0.47,2.8-0.87,4.27-1.14c1.46-0.25,3-0.41,4.59-0.07
			c0.79,0.16,1.6,0.51,2.26,1.04c0.66,0.52,1.17,1.16,1.58,1.83c0.82,1.35,1.28,2.79,1.62,4.24c0.66,2.89,0.87,5.81,0.9,8.71
			c0.04,5.8-0.52,11.55-1.45,17.25l0,0l-0.09,0.61l-0.57-0.22c-6.39-2.42-12.49-5.47-18.47-8.71c-2.98-1.64-5.93-3.33-8.85-5.07
			c-1.46-0.87-2.91-1.76-4.35-2.66l-2.16-1.36l-1.07-0.69l-0.54-0.35l-0.27-0.17c-0.01-0.01-0.19-0.12-0.28-0.23
			C260.56,231.7,260.49,231.57,260.45,231.46z"/>
	</g>
	<path class="st5" d="M261.14,231.06c0,0-29.98,16.89-45.41,44.45s-11.86,38.81,1.24,46.44c13.1,7.63,28.88,15.41,28.88,15.41
		s20.2,10.45,28.91-10.04c8.71-20.5,30.39-59.23,22.24-77.11C297.01,250.2,280.09,243.75,261.14,231.06z"/>
	<path class="st6" d="M288,246.54c0,0,1.68,9.9-2.21,23.69s-17.36,47.44-22.21,54.63c-4.85,7.2-13.66,14.91-26.73,7.93
		c0,0,15.19,8.87,21.75,7.19c6.56-1.68,11.81-2.97,16.17-12.66s14.04-28.29,18.13-41.39c0,0,9.33-19.94,4.11-35.72
		C297.01,250.2,289.99,247.71,288,246.54z"/>
	<path class="st3" d="M271.15,237.34c0,0-32.1,19.53-40.21,52.35c0,0-2.7,8.43,8.74,13.55c11.44,5.11,16.19,4.57,18.59-0.45
		c2.4-5.02,16.65-28.64,21.9-60.43L271.15,237.34z"/>
	<path class="st4" d="M261.95,231.46c0,0-30.8,16.5-46.22,44.05s-11.86,38.81,1.24,46.44c13.1,7.63,28.88,15.41,28.88,15.41
		s20.2,10.45,28.91-10.04c8.71-20.5,29.93-59.48,21.78-77.37C296.55,249.94,280.91,244.14,261.95,231.46z"/>
</g>
<g>
	<g>
		<path class="st0" d="M313.56,252.72c0,0,22.65-14.19,36.35-27.59c0,0-24.63-15.79-32.5-10.18
			C309.54,220.55,313.56,252.72,313.56,252.72z"/>
		<path d="M313.78,252.26c-0.02-0.07-0.08-0.12-0.14-0.14c-0.04-0.03-0.13,0.03-0.04-0.02l0.3-0.19l0.6-0.38l1.2-0.77l2.38-1.57
			c1.58-1.05,3.16-2.12,4.72-3.2c3.13-2.16,6.22-4.37,9.28-6.63c6.09-4.55,12.03-9.31,17.49-14.58l0.08,0.78l0,0
			c-2.62-1.59-5.34-3.07-8.08-4.46c-2.74-1.4-5.52-2.7-8.37-3.82c-2.85-1.1-5.75-2.09-8.72-2.54c-1.47-0.21-2.97-0.29-4.35-0.03
			c-0.69,0.13-1.34,0.36-1.91,0.69c-0.56,0.34-1.04,0.8-1.46,1.35c-0.84,1.11-1.4,2.5-1.83,3.92c-0.43,1.43-0.73,2.92-0.95,4.42
			c-0.45,3.01-0.61,6.08-0.69,9.14c-0.07,3.07,0,6.15,0.14,9.22c0.06,1.54,0.15,3.08,0.25,4.61l0.18,2.3l0.1,1.15l0.05,0.57
			l0.03,0.29l0.01,0.14c-0.01-0.01,0.02,0.12-0.02-0.03C313.99,252.38,313.87,252.28,313.78,252.26z M313.35,253.17
			c-0.1-0.06-0.23-0.21-0.27-0.36c-0.05-0.2-0.02-0.12-0.03-0.17l-0.02-0.14l-0.04-0.29l-0.07-0.58l-0.14-1.16l-0.25-2.31
			c-0.16-1.54-0.29-3.09-0.4-4.64c-0.21-3.1-0.32-6.2-0.31-9.32c0.01-3.11,0.17-6.24,0.61-9.35c0.22-1.56,0.53-3.11,0.97-4.65
			c0.46-1.53,1.05-3.06,2.07-4.44c0.51-0.68,1.16-1.31,1.93-1.76c0.77-0.44,1.6-0.71,2.43-0.87c1.66-0.3,3.3-0.18,4.88,0.05
			c3.16,0.51,6.15,1.52,9.03,2.71c5.77,2.4,11.21,5.43,16.44,8.81l0,0l0.53,0.34l-0.45,0.44c-5.51,5.32-11.48,10.1-17.59,14.67
			c-3.07,2.27-6.17,4.49-9.31,6.66c-1.57,1.08-3.15,2.15-4.74,3.21l-2.39,1.57l-1.2,0.78l-0.6,0.39l-0.3,0.19
			c-0.01,0.01-0.2,0.13-0.34,0.17C313.63,253.17,313.47,253.17,313.35,253.17z"/>
	</g>
	<path class="st7" d="M313.27,252.37c0,0,1.72,36.92,21.03,63.86c19.3,26.94,32.05,28.14,45.95,18.34
		c13.9-9.8,29.27-22.21,29.27-22.21s20.16-15.67,4.44-32.97c-15.72-17.3-42.85-55.17-64.33-54.61
		C349.63,224.78,335,238.88,313.27,252.37z"/>
	<path class="st8" d="M341.62,232.19c0,0,10.5,2.5,22.04,12.18s37.76,37.24,42.4,45.1c4.63,7.86,7.83,19.86-5.43,29.91
		c0,0,16.14-11.36,17.73-18.59s2.92-12.99-4.4-21.4c-7.31-8.41-20.7-25.88-31.48-35.47c0,0-14.87-17.68-32.85-19.14
		C349.63,224.78,343.74,230.71,341.62,232.19z"/>
	<path class="st3" d="M324.33,245.06c0,0,3.25,40.13,31.3,62.02c0,0,6.91,6.24,17.53-2.98s12.43-14.16,8.72-18.67
		c-3.71-4.5-19.75-28.62-48.2-47.24L324.33,245.06z"/>
	<path class="st4" d="M314.06,251.72c0,0,0.94,37.56,20.24,64.51c19.3,26.94,32.05,28.14,45.95,18.34
		c13.9-9.8,29.27-22.21,29.27-22.21s20.16-15.67,4.44-32.97c-15.72-17.3-43.33-54.82-64.81-54.26
		C349.15,225.12,335.78,238.23,314.06,251.72z"/>
</g>
<g>
	<g>
		<path class="st0" d="M350.32,208.31c0,0-6.69-22.76-14.1-38.11c0,0-14.54,14.51-11.75,22.64
			C327.26,200.97,350.32,208.31,350.32,208.31z"/>
		<path d="M349.97,207.95c-0.08,0.01-0.16,0.06-0.19,0.13c-0.04,0.05,0,0.16-0.03,0.06l-0.09-0.3l-0.18-0.61l-0.37-1.21l-0.76-2.42
			l-1.56-4.83c-1.06-3.21-2.17-6.41-3.32-9.6c-2.31-6.36-4.79-12.67-7.7-18.76l0.8,0.14l0,0c-1.61,1.72-3.14,3.54-4.57,5.42
			c-1.45,1.87-2.81,3.8-4,5.82c-1.17,2.02-2.23,4.12-2.78,6.32c-0.27,1.09-0.4,2.21-0.27,3.26c0.11,1.06,0.54,2,1.19,2.9
			c1.3,1.79,3.18,3.24,5.11,4.54c1.95,1.29,4.03,2.42,6.13,3.49c2.11,1.06,4.28,2.03,6.46,2.95c1.09,0.46,2.19,0.91,3.3,1.34
			l1.66,0.63l0.84,0.31l0.42,0.15l0.21,0.07l0.1,0.04l0.03,0.01l0.01,0c-0.02-0.01-0.05-0.01-0.08-0.02
			C350.2,207.77,350.03,207.86,349.97,207.95z M350.67,208.66c-0.09,0.08-0.3,0.15-0.46,0.12c-0.04-0.01-0.08-0.02-0.11-0.02
			l-0.01,0l-0.03-0.01l-0.11-0.03l-0.22-0.07l-0.43-0.13l-0.86-0.28l-1.7-0.57c-1.13-0.39-2.26-0.8-3.38-1.22
			c-2.24-0.86-4.45-1.8-6.63-2.83c-2.18-1.03-4.31-2.18-6.34-3.51c-2.02-1.34-4.02-2.83-5.56-4.9c-0.77-1.02-1.33-2.33-1.46-3.66
			c-0.15-1.32,0.03-2.61,0.33-3.83c0.64-2.43,1.75-4.64,3.02-6.71c2.57-4.13,5.7-7.8,9.13-11.18l0,0l0.5-0.5l0.3,0.64
			c2.93,6.14,5.42,12.47,7.74,18.85c1.15,3.19,2.26,6.4,3.33,9.62l1.57,4.84l0.76,2.43l0.37,1.22l0.18,0.61l0.09,0.31
			c0,0.01,0.07,0.21,0.06,0.37C350.77,208.4,350.72,208.55,350.67,208.66z"/>
	</g>
	<path class="st9" d="M350.03,208.42c0,0,26.05,10.74,47.64,4.14c21.59-6.59,24.24-16.39,19.37-30.72
		c-4.87-14.33-11.36-30.68-11.36-30.68s-8.08-21.26-22.42-14.36s-44.67,16.16-47.34,33.51C335.93,170.31,343.7,186.63,350.03,208.42
		z"/>
	<path class="st10" d="M339.97,179.14c0,0,3.24-7.57,11.65-13.62c8.41-6.05,31.42-17.97,37.57-19.1c6.15-1.13,15,0.26,20.14,14.16
		c0,0-5.64-16.63-10.47-20.27c-4.83-3.64-8.67-6.59-15.59-3.51c-6.92,3.09-21.04,8.06-29.28,13.53c0,0-14.48,6.09-18.06,19.98
		C335.93,170.31,339.23,176.97,339.97,179.14z"/>
	<path class="st3" d="M346.5,197.18c0,0,28.52,10.57,47.82-4.68c0,0,5.34-3.48,0.41-15c-4.93-11.52-8.13-14.58-11.81-13.09
		c-3.68,1.49-22.82,6.4-39.89,23.04L346.5,197.18z"/>
	<path class="st4" d="M349.69,207.58c0,0,26.39,11.58,47.98,4.98c21.59-6.59,24.24-16.39,19.37-30.72
		c-4.87-14.33-11.36-30.68-11.36-30.68s-8.08-21.26-22.42-14.36s-44.5,16.65-47.16,34.01C336.1,170.81,343.36,185.79,349.69,207.58z
		"/>
</g>
<g>
	<g>
		<path class="st0" d="M318.34,163.82c0,0-23.01,5.87-38.53,12.94c0,0,14.63,16.38,22.85,13.85S318.34,163.82,318.34,163.82z"/>
		<path d="M317.98,164.16c0.01,0.08,0.06,0.16,0.12,0.19c0.05,0.04,0.15,0.01,0.06,0.03l-0.31,0.08l-0.61,0.16l-1.23,0.33
			l-2.45,0.67l-4.88,1.4c-3.25,0.96-6.48,1.96-9.7,3c-6.43,2.12-12.8,4.41-18.96,7.18l0.17-0.79l0,0c1.69,1.77,3.49,3.47,5.34,5.09
			c1.84,1.63,3.75,3.17,5.76,4.56c2.01,1.36,4.1,2.64,6.34,3.41c1.11,0.38,2.26,0.62,3.36,0.59c1.11-0.02,2.1-0.39,3.04-1.03
			c1.88-1.3,3.38-3.27,4.7-5.28c1.33-2.04,2.47-4.21,3.56-6.41c1.08-2.21,2.06-4.47,2.98-6.75c0.47-1.14,0.92-2.29,1.36-3.44
			l0.64-1.74l0.31-0.87l0.15-0.44l0.07-0.22l0.04-0.11l0.01-0.03l0-0.01c-0.01,0.02-0.01,0.05-0.01,0.08
			C317.81,163.95,317.89,164.11,317.98,164.16z M318.7,163.47c0.08,0.1,0.15,0.29,0.12,0.45c-0.01,0.04-0.01,0.08-0.02,0.11l0,0.02
			l-0.01,0.03l-0.03,0.11l-0.07,0.22l-0.14,0.45l-0.28,0.89l-0.58,1.78c-0.39,1.18-0.8,2.36-1.23,3.53
			c-0.87,2.33-1.82,4.64-2.87,6.91c-1.04,2.27-2.21,4.5-3.57,6.63c-1.38,2.11-2.9,4.21-5.1,5.77c-1.09,0.78-2.52,1.29-3.9,1.29
			c-1.38,0.03-2.69-0.28-3.92-0.71c-2.45-0.88-4.63-2.21-6.68-3.68c-4.08-2.97-7.68-6.44-10.99-10.19l0,0l-0.46-0.51l0.62-0.28
			c6.21-2.79,12.62-5.09,19.07-7.22c3.23-1.05,6.47-2.05,9.73-3.01l4.89-1.4l2.46-0.68l1.23-0.33l0.62-0.16l0.31-0.08
			c0.01,0,0.22-0.06,0.37-0.05C318.44,163.37,318.59,163.43,318.7,163.47z"/>
	</g>
	<path class="st11" d="M318.45,164.13c0,0,10.89-27.26,4.27-50.72c-6.62-23.46-16.51-26.85-31-22.45
		c-14.49,4.4-31.02,10.41-31.02,10.41s-21.49,7.45-14.55,23.17c6.94,15.72,16.24,48.7,33.76,52.53
		C279.93,177.07,296.43,169.68,318.45,164.13z"/>
	<path class="st12" d="M288.86,173.25c0,0-7.64-3.9-13.74-13.23c-6.1-9.34-18.09-34.62-19.22-41.27
		c-1.13-6.65,0.29-16.03,14.34-20.74c0,0-16.81,5.09-20.5,10.05c-3.69,4.96-6.68,8.9-3.57,16.48s8.1,22.96,13.61,32.08
		c0,0,6.12,15.83,20.15,20.45C279.93,177.07,286.66,173.91,288.86,173.25z"/>
	<path class="st3" d="M307.1,167.27c0,0,10.73-29.91-4.63-51.42c0,0-3.5-5.91-15.15-1.29c-11.65,4.62-14.75,7.87-13.25,11.89
		c1.5,4.02,6.43,24.77,23.2,43.97L307.1,167.27z"/>
	<path class="st4" d="M317.61,164.45c0,0,11.74-27.58,5.12-51.04c-6.62-23.46-16.51-26.85-31-22.45
		c-14.49,4.4-31.02,10.41-31.02,10.41s-21.49,7.45-14.55,23.17c6.94,15.72,16.74,48.54,34.27,52.37
		C280.43,176.91,295.58,169.99,317.61,164.45z"/>
</g>
</svg>
