<?xml version="1.0" encoding="UTF-8" standalone="no"?>
<!-- Generator: Adobe Illustrator 24.2.1, SVG Export Plug-In . SVG Version: 6.00 Build 0)  -->

<svg
   version="1.1"
   id="Layer_1"
   x="0px"
   y="0px"
   viewBox="0 0 315.085 315.08469"
   xml:space="preserve"
   sodipodi:docname="LOGO_FLOR_Loading.svg"
   width="315.08499"
   height="315.08469"
   inkscape:version="1.3.2 (091e20ef0f, 2023-11-25, custom)"
   xmlns:inkscape="http://www.inkscape.org/namespaces/inkscape"
   xmlns:sodipodi="http://sodipodi.sourceforge.net/DTD/sodipodi-0.dtd"
   xmlns="http://www.w3.org/2000/svg"
   xmlns:svg="http://www.w3.org/2000/svg"><defs
   id="defs44" /><sodipodi:namedview
   id="namedview44"
   pagecolor="#ffffff"
   bordercolor="#000000"
   borderopacity="0.25"
   inkscape:showpageshadow="2"
   inkscape:pageopacity="0.0"
   inkscape:pagecheckerboard="0"
   inkscape:deskcolor="#d1d1d1"
   showgrid="false"
   showguides="true"
   inkscape:zoom="1.4093451"
   inkscape:cx="224.57239"
   inkscape:cy="113.17313"
   inkscape:window-width="1920"
   inkscape:window-height="1005"
   inkscape:window-x="0"
   inkscape:window-y="38"
   inkscape:window-maximized="1"
   inkscape:current-layer="Layer_1"><sodipodi:guide
     position="157.54235,208.71852"
     orientation="-1,0"
     id="guide45"
     inkscape:locked="false"
     inkscape:label=""
     inkscape:color="rgb(0,134,229)" /><sodipodi:guide
     position="175.25871,157.54234"
     orientation="0,1"
     id="guide46"
     inkscape:locked="false"
     inkscape:label=""
     inkscape:color="rgb(0,134,229)" /></sodipodi:namedview>
<style
   type="text/css"
   id="style1">
	.st0{fill:#FFEAAD;}
	.st1{fill:#F2BE2D;}
	.st2{fill:#F4AA2E;}
	.st3{fill:#F2E186;stroke:#000000;stroke-miterlimit:10;}
	.st4{fill:none;stroke:#000000;stroke-width:1.612;stroke-miterlimit:10;}
	.st5{fill:#785887;}
	.st6{fill:#421152;}
	.st7{fill:#C5584D;}
	.st8{fill:#841515;}
	.st9{fill:#F7E6B5;}
	.st10{fill:#CBB051;}
	.st11{fill:#3B648D;}
	.st12{fill:#00365F;}
</style>






<g
   id="g20"
   transform="translate(-142.63818,-38.924657)">
	<g
   id="g16">
		<path
   class="st0"
   d="m 254.95,174.24 c 0,0 -3.52,23.62 -1.81,40.62 0,0 28.74,-8.06 29.44,-16.65 0.68,-8.58 -27.63,-23.97 -27.63,-23.97 z"
   id="path15" />
		<path
   d="m 255.17,174.69 c 0.06,0.02 0.14,0 0.18,-0.03 0.04,-0.02 0.06,-0.12 0.04,-0.03 l -0.04,0.31 -0.09,0.63 -0.17,1.26 -0.31,2.52 c -0.2,1.68 -0.38,3.37 -0.54,5.05 -0.33,3.37 -0.59,6.75 -0.79,10.13 -0.36,6.76 -0.46,13.55 0.17,20.28 l -0.63,-0.43 v 0 c 2.87,-0.88 5.72,-1.88 8.52,-2.95 2.81,-1.05 5.6,-2.19 8.3,-3.47 2.69,-1.29 5.36,-2.67 7.73,-4.4 1.18,-0.86 2.29,-1.82 3.13,-2.92 0.85,-1.11 1.29,-2.33 1,-3.57 -0.29,-1.27 -1.06,-2.52 -1.94,-3.66 -0.89,-1.15 -1.91,-2.22 -2.98,-3.24 -2.15,-2.04 -4.52,-3.89 -6.92,-5.68 -2.41,-1.78 -4.91,-3.46 -7.44,-5.09 -1.26,-0.82 -2.53,-1.62 -3.82,-2.41 l -1.93,-1.17 -0.97,-0.57 -0.49,-0.28 -0.24,-0.14 -0.12,-0.07 c 0,0 -0.1,-0.04 0.04,0.01 0.1,0.02 0.24,-0.02 0.31,-0.08 z m -0.45,-0.89 c 0.11,-0.04 0.29,-0.05 0.43,0 0.18,0.07 0.12,0.06 0.16,0.07 l 0.13,0.07 0.25,0.13 0.5,0.27 1,0.55 1.98,1.11 c 1.32,0.75 2.62,1.52 3.92,2.3 2.58,1.58 5.13,3.24 7.61,5 2.48,1.76 4.89,3.64 7.13,5.74 1.12,1.05 2.19,2.17 3.17,3.4 0.95,1.24 1.86,2.6 2.26,4.29 0.2,0.83 0.18,1.81 -0.1,2.64 -0.27,0.84 -0.7,1.58 -1.2,2.23 -1,1.3 -2.22,2.31 -3.48,3.23 -2.53,1.8 -5.25,3.22 -8.03,4.48 -5.56,2.5 -11.31,4.44 -17.17,6.04 v 0 l -0.58,0.16 -0.06,-0.59 c -0.64,-6.81 -0.54,-13.64 -0.18,-20.43 0.2,-3.4 0.46,-6.79 0.79,-10.18 0.17,-1.69 0.35,-3.38 0.55,-5.07 l 0.31,-2.53 0.17,-1.27 0.09,-0.63 0.04,-0.32 c 0,-0.01 0.03,-0.22 0.09,-0.34 0.05,-0.15 0.14,-0.27 0.22,-0.35 z"
   id="path16" />
	</g>
	<path
   class="st1"
   d="m 255.42,174.24 c 0,0 -30.59,-19.66 -64.75,-21.56 -34.16,-1.9 -43.47,6.2 -44.76,21.31 -1.29,15.11 -1.46,32.7 -1.46,32.7 0,0 -0.71,22.74 23.41,21.67 24.12,-1.07 72.12,1.61 85.76,-13.5 -0.02,0.01 -1.68,-18.03 1.8,-40.62 z"
   id="path17" />
	<path
   class="st2"
   d="m 252.94,205.17 c 0,0 -8.88,5.82 -24.17,8.31 -15.29,2.49 -54.48,5 -63.79,3.75 -9.31,-1.24 -20.98,-5.82 -20.31,-20.63 0,0 -1.51,17.53 3.21,22.71 4.73,5.18 8.46,9.34 19.97,9.05 11.51,-0.29 34.23,0.35 48.94,-1.67 0,0 23.86,-0.26 36.81,-11.83 0,0.01 -0.87,-7.4 -0.66,-9.69 z"
   id="path18" />
	<path
   class="st3"
   d="m 253.99,185.99 c 0,0 -34.16,-20.41 -70.03,-13.44 0,0 -9.5,1.24 -9.12,13.77 0.38,12.53 3.15,16.56 9.18,16.54 6.03,-0.02 35.79,2.54 69.3,-6.55 z"
   id="path19" />
	<path
   class="st4"
   d="m 255.42,175.15 c 0,0 -30.59,-20.56 -64.75,-22.47 -34.16,-1.91 -43.47,6.2 -44.76,21.31 -1.29,15.11 -1.46,32.7 -1.46,32.7 0,0 -0.71,22.74 23.41,21.67 24.12,-1.07 72.16,1.09 85.79,-14.03 -0.01,0.01 -1.71,-16.6 1.77,-39.18 z"
   id="path20" />
</g><g
   id="g26"
   transform="translate(-142.63818,-38.924657)">
	<g
   id="g22">
		<path
   class="st0"
   d="m 260.95,231.46 c 0,0 19.86,13.18 35.87,19.14 0,0 4.27,-27.38 -3.19,-31.68 -7.46,-4.31 -32.68,12.54 -32.68,12.54 z"
   id="path21" />
		<path
   d="m 261.45,231.45 c 0.05,-0.05 0.06,-0.13 0.05,-0.19 0,-0.05 -0.09,-0.11 -0.01,-0.05 l 0.27,0.17 0.53,0.35 1.07,0.69 2.15,1.35 c 1.44,0.9 2.88,1.78 4.34,2.65 2.91,1.74 5.85,3.42 8.82,5.05 5.95,3.23 12.02,6.26 18.34,8.65 l -0.67,0.39 v 0 c 0.36,-2.82 0.61,-5.68 0.78,-8.53 0.18,-2.85 0.26,-5.7 0.18,-8.54 -0.1,-2.83 -0.29,-5.67 -0.94,-8.37 -0.33,-1.34 -0.77,-2.66 -1.46,-3.76 -0.69,-1.13 -1.61,-1.9 -2.83,-2.14 -1.23,-0.27 -2.61,-0.17 -3.96,0.06 -1.36,0.24 -2.71,0.61 -4.05,1.06 -2.67,0.89 -5.28,2.04 -7.85,3.26 -2.57,1.23 -5.09,2.57 -7.58,3.97 -1.25,0.69 -2.49,1.4 -3.72,2.13 l -1.84,1.1 -0.91,0.56 -0.45,0.28 -0.23,0.14 -0.11,0.07 c 0,-0.01 -0.09,0.07 0.02,-0.03 0.05,-0.08 0.08,-0.22 0.06,-0.32 z m -1,0.01 c 0.01,-0.12 0.09,-0.29 0.2,-0.39 0.15,-0.13 0.1,-0.07 0.14,-0.1 l 0.11,-0.08 0.22,-0.15 0.45,-0.3 0.9,-0.6 1.81,-1.17 c 1.21,-0.77 2.44,-1.53 3.67,-2.27 2.48,-1.47 5,-2.86 7.59,-4.16 2.58,-1.3 5.24,-2.47 8,-3.42 1.38,-0.47 2.8,-0.87 4.27,-1.14 1.46,-0.25 3,-0.41 4.59,-0.07 0.79,0.16 1.6,0.51 2.26,1.04 0.66,0.52 1.17,1.16 1.58,1.83 0.82,1.35 1.28,2.79 1.62,4.24 0.66,2.89 0.87,5.81 0.9,8.71 0.04,5.8 -0.52,11.55 -1.45,17.25 v 0 l -0.09,0.61 -0.57,-0.22 c -6.39,-2.42 -12.49,-5.47 -18.47,-8.71 -2.98,-1.64 -5.93,-3.33 -8.85,-5.07 -1.46,-0.87 -2.91,-1.76 -4.35,-2.66 l -2.16,-1.36 -1.07,-0.69 -0.54,-0.35 -0.27,-0.17 c -0.01,-0.01 -0.19,-0.12 -0.28,-0.23 -0.1,-0.13 -0.17,-0.26 -0.21,-0.37 z"
   id="path22" />
	</g>
	<path
   class="st5"
   d="m 261.14,231.06 c 0,0 -29.98,16.89 -45.41,44.45 -15.43,27.56 -11.86,38.81 1.24,46.44 13.1,7.63 28.88,15.41 28.88,15.41 0,0 20.2,10.45 28.91,-10.04 8.71,-20.5 30.39,-59.23 22.24,-77.11 0.01,-0.01 -16.91,-6.46 -35.86,-19.15 z"
   id="path23" />
	<path
   class="st6"
   d="m 288,246.54 c 0,0 1.68,9.9 -2.21,23.69 -3.89,13.79 -17.36,47.44 -22.21,54.63 -4.85,7.2 -13.66,14.91 -26.73,7.93 0,0 15.19,8.87 21.75,7.19 6.56,-1.68 11.81,-2.97 16.17,-12.66 4.36,-9.69 14.04,-28.29 18.13,-41.39 0,0 9.33,-19.94 4.11,-35.72 0,-0.01 -7.02,-2.5 -9.01,-3.67 z"
   id="path24" />
	<path
   class="st3"
   d="m 271.15,237.34 c 0,0 -32.1,19.53 -40.21,52.35 0,0 -2.7,8.43 8.74,13.55 11.44,5.11 16.19,4.57 18.59,-0.45 2.4,-5.02 16.65,-28.64 21.9,-60.43 z"
   id="path25" />
	<path
   class="st4"
   d="m 261.95,231.46 c 0,0 -30.8,16.5 -46.22,44.05 -15.42,27.55 -11.86,38.81 1.24,46.44 13.1,7.63 28.88,15.41 28.88,15.41 0,0 20.2,10.45 28.91,-10.04 8.71,-20.5 29.93,-59.48 21.78,-77.37 0.01,-0.01 -15.63,-5.81 -34.59,-18.49 z"
   id="path26" />
</g><g
   id="g32"
   transform="translate(-142.63818,-38.924657)">
	<g
   id="g28">
		<path
   class="st0"
   d="m 313.56,252.72 c 0,0 22.65,-14.19 36.35,-27.59 0,0 -24.63,-15.79 -32.5,-10.18 -7.87,5.6 -3.85,37.77 -3.85,37.77 z"
   id="path27" />
		<path
   d="m 313.78,252.26 c -0.02,-0.07 -0.08,-0.12 -0.14,-0.14 -0.04,-0.03 -0.13,0.03 -0.04,-0.02 l 0.3,-0.19 0.6,-0.38 1.2,-0.77 2.38,-1.57 c 1.58,-1.05 3.16,-2.12 4.72,-3.2 3.13,-2.16 6.22,-4.37 9.28,-6.63 6.09,-4.55 12.03,-9.31 17.49,-14.58 l 0.08,0.78 v 0 c -2.62,-1.59 -5.34,-3.07 -8.08,-4.46 -2.74,-1.4 -5.52,-2.7 -8.37,-3.82 -2.85,-1.1 -5.75,-2.09 -8.72,-2.54 -1.47,-0.21 -2.97,-0.29 -4.35,-0.03 -0.69,0.13 -1.34,0.36 -1.91,0.69 -0.56,0.34 -1.04,0.8 -1.46,1.35 -0.84,1.11 -1.4,2.5 -1.83,3.92 -0.43,1.43 -0.73,2.92 -0.95,4.42 -0.45,3.01 -0.61,6.08 -0.69,9.14 -0.07,3.07 0,6.15 0.14,9.22 0.06,1.54 0.15,3.08 0.25,4.61 l 0.18,2.3 0.1,1.15 0.05,0.57 0.03,0.29 0.01,0.14 c -0.01,-0.01 0.02,0.12 -0.02,-0.03 -0.04,-0.1 -0.16,-0.2 -0.25,-0.22 z m -0.43,0.91 c -0.1,-0.06 -0.23,-0.21 -0.27,-0.36 -0.05,-0.2 -0.02,-0.12 -0.03,-0.17 l -0.02,-0.14 -0.04,-0.29 -0.07,-0.58 -0.14,-1.16 -0.25,-2.31 c -0.16,-1.54 -0.29,-3.09 -0.4,-4.64 -0.21,-3.1 -0.32,-6.2 -0.31,-9.32 0.01,-3.11 0.17,-6.24 0.61,-9.35 0.22,-1.56 0.53,-3.11 0.97,-4.65 0.46,-1.53 1.05,-3.06 2.07,-4.44 0.51,-0.68 1.16,-1.31 1.93,-1.76 0.77,-0.44 1.6,-0.71 2.43,-0.87 1.66,-0.3 3.3,-0.18 4.88,0.05 3.16,0.51 6.15,1.52 9.03,2.71 5.77,2.4 11.21,5.43 16.44,8.81 v 0 l 0.53,0.34 -0.45,0.44 c -5.51,5.32 -11.48,10.1 -17.59,14.67 -3.07,2.27 -6.17,4.49 -9.31,6.66 -1.57,1.08 -3.15,2.15 -4.74,3.21 l -2.39,1.57 -1.2,0.78 -0.6,0.39 -0.3,0.19 c -0.01,0.01 -0.2,0.13 -0.34,0.17 -0.16,0.05 -0.32,0.05 -0.44,0.05 z"
   id="path28" />
	</g>
	<path
   class="st7"
   d="m 313.27,252.37 c 0,0 1.72,36.92 21.03,63.86 19.3,26.94 32.05,28.14 45.95,18.34 13.9,-9.8 29.27,-22.21 29.27,-22.21 0,0 20.16,-15.67 4.44,-32.97 -15.72,-17.3 -42.85,-55.17 -64.33,-54.61 0,0 -14.63,14.1 -36.36,27.59 z"
   id="path29" />
	<path
   class="st8"
   d="m 341.62,232.19 c 0,0 10.5,2.5 22.04,12.18 11.54,9.68 37.76,37.24 42.4,45.1 4.63,7.86 7.83,19.86 -5.43,29.91 0,0 16.14,-11.36 17.73,-18.59 1.59,-7.23 2.92,-12.99 -4.4,-21.4 -7.31,-8.41 -20.7,-25.88 -31.48,-35.47 0,0 -14.87,-17.68 -32.85,-19.14 0,0 -5.89,5.93 -8.01,7.41 z"
   id="path30" />
	<path
   class="st3"
   d="m 324.33,245.06 c 0,0 3.25,40.13 31.3,62.02 0,0 6.91,6.24 17.53,-2.98 10.62,-9.22 12.43,-14.16 8.72,-18.67 -3.71,-4.5 -19.75,-28.62 -48.2,-47.24 z"
   id="path31" />
	<path
   class="st4"
   d="m 314.06,251.72 c 0,0 0.94,37.56 20.24,64.51 19.3,26.94 32.05,28.14 45.95,18.34 13.9,-9.8 29.27,-22.21 29.27,-22.21 0,0 20.16,-15.67 4.44,-32.97 -15.72,-17.3 -43.33,-54.82 -64.81,-54.26 0,-0.01 -13.37,13.1 -35.09,26.59 z"
   id="path32" />
</g><g
   id="g38"
   transform="translate(-143.34773,-39.634206)">
	<g
   id="g34">
		<path
   class="st0"
   d="m 350.32,208.31 c 0,0 -6.69,-22.76 -14.1,-38.11 0,0 -14.54,14.51 -11.75,22.64 2.79,8.13 25.85,15.47 25.85,15.47 z"
   id="path33" />
		<path
   d="m 349.97,207.95 c -0.08,0.01 -0.16,0.06 -0.19,0.13 -0.04,0.05 0,0.16 -0.03,0.06 l -0.09,-0.3 -0.18,-0.61 -0.37,-1.21 -0.76,-2.42 -1.56,-4.83 c -1.06,-3.21 -2.17,-6.41 -3.32,-9.6 -2.31,-6.36 -4.79,-12.67 -7.7,-18.76 l 0.8,0.14 v 0 c -1.61,1.72 -3.14,3.54 -4.57,5.42 -1.45,1.87 -2.81,3.8 -4,5.82 -1.17,2.02 -2.23,4.12 -2.78,6.32 -0.27,1.09 -0.4,2.21 -0.27,3.26 0.11,1.06 0.54,2 1.19,2.9 1.3,1.79 3.18,3.24 5.11,4.54 1.95,1.29 4.03,2.42 6.13,3.49 2.11,1.06 4.28,2.03 6.46,2.95 1.09,0.46 2.19,0.91 3.3,1.34 l 1.66,0.63 0.84,0.31 0.42,0.15 0.21,0.07 0.1,0.04 0.03,0.01 h 0.01 c -0.02,-0.01 -0.05,-0.01 -0.08,-0.02 -0.13,-0.01 -0.3,0.08 -0.36,0.17 z m 0.7,0.71 c -0.09,0.08 -0.3,0.15 -0.46,0.12 -0.04,-0.01 -0.08,-0.02 -0.11,-0.02 h -0.01 l -0.03,-0.01 -0.11,-0.03 -0.22,-0.07 -0.43,-0.13 -0.86,-0.28 -1.7,-0.57 c -1.13,-0.39 -2.26,-0.8 -3.38,-1.22 -2.24,-0.86 -4.45,-1.8 -6.63,-2.83 -2.18,-1.03 -4.31,-2.18 -6.34,-3.51 -2.02,-1.34 -4.02,-2.83 -5.56,-4.9 -0.77,-1.02 -1.33,-2.33 -1.46,-3.66 -0.15,-1.32 0.03,-2.61 0.33,-3.83 0.64,-2.43 1.75,-4.64 3.02,-6.71 2.57,-4.13 5.7,-7.8 9.13,-11.18 v 0 l 0.5,-0.5 0.3,0.64 c 2.93,6.14 5.42,12.47 7.74,18.85 1.15,3.19 2.26,6.4 3.33,9.62 l 1.57,4.84 0.76,2.43 0.37,1.22 0.18,0.61 0.09,0.31 c 0,0.01 0.07,0.21 0.06,0.37 0.02,0.18 -0.03,0.33 -0.08,0.44 z"
   id="path34" />
	</g>
	<path
   class="st9"
   d="m 350.03,208.42 c 0,0 26.05,10.74 47.64,4.14 21.59,-6.59 24.24,-16.39 19.37,-30.72 -4.87,-14.33 -11.36,-30.68 -11.36,-30.68 0,0 -8.08,-21.26 -22.42,-14.36 -14.34,6.9 -44.67,16.16 -47.34,33.51 0.01,0 7.78,16.32 14.11,38.11 z"
   id="path35" />
	<path
   class="st10"
   d="m 339.97,179.14 c 0,0 3.24,-7.57 11.65,-13.62 8.41,-6.05 31.42,-17.97 37.57,-19.1 6.15,-1.13 15,0.26 20.14,14.16 0,0 -5.64,-16.63 -10.47,-20.27 -4.83,-3.64 -8.67,-6.59 -15.59,-3.51 -6.92,3.09 -21.04,8.06 -29.28,13.53 0,0 -14.48,6.09 -18.06,19.98 0,0 3.3,6.66 4.04,8.83 z"
   id="path36" />
	<path
   class="st3"
   d="m 346.5,197.18 c 0,0 28.52,10.57 47.82,-4.68 0,0 5.34,-3.48 0.41,-15 -4.93,-11.52 -8.13,-14.58 -11.81,-13.09 -3.68,1.49 -22.82,6.4 -39.89,23.04 z"
   id="path37" />
	<path
   class="st4"
   d="m 349.69,207.58 c 0,0 26.39,11.58 47.98,4.98 21.59,-6.59 24.24,-16.39 19.37,-30.72 -4.87,-14.33 -11.36,-30.68 -11.36,-30.68 0,0 -8.08,-21.26 -22.42,-14.36 -14.34,6.9 -44.5,16.65 -47.16,34.01 0,0 7.26,14.98 13.59,36.77 z"
   id="path38" />
</g><g
   id="g44"
   transform="translate(-142.63818,-50.924657)">
	<g
   id="g40">
		<path
   class="st0"
   d="m 318.34,163.82 c 0,0 -23.01,5.87 -38.53,12.94 0,0 14.63,16.38 22.85,13.85 8.22,-2.53 15.68,-26.79 15.68,-26.79 z"
   id="path39" />
		<path
   d="m 317.98,164.16 c 0.01,0.08 0.06,0.16 0.12,0.19 0.05,0.04 0.15,0.01 0.06,0.03 l -0.31,0.08 -0.61,0.16 -1.23,0.33 -2.45,0.67 -4.88,1.4 c -3.25,0.96 -6.48,1.96 -9.7,3 -6.43,2.12 -12.8,4.41 -18.96,7.18 l 0.17,-0.79 v 0 c 1.69,1.77 3.49,3.47 5.34,5.09 1.84,1.63 3.75,3.17 5.76,4.56 2.01,1.36 4.1,2.64 6.34,3.41 1.11,0.38 2.26,0.62 3.36,0.59 1.11,-0.02 2.1,-0.39 3.04,-1.03 1.88,-1.3 3.38,-3.27 4.7,-5.28 1.33,-2.04 2.47,-4.21 3.56,-6.41 1.08,-2.21 2.06,-4.47 2.98,-6.75 0.47,-1.14 0.92,-2.29 1.36,-3.44 l 0.64,-1.74 0.31,-0.87 0.15,-0.44 0.07,-0.22 0.04,-0.11 0.01,-0.03 v -0.01 c -0.01,0.02 -0.01,0.05 -0.01,0.08 -0.03,0.14 0.05,0.3 0.14,0.35 z m 0.72,-0.69 c 0.08,0.1 0.15,0.29 0.12,0.45 -0.01,0.04 -0.01,0.08 -0.02,0.11 v 0.02 l -0.01,0.03 -0.03,0.11 -0.07,0.22 -0.14,0.45 -0.28,0.89 -0.58,1.78 c -0.39,1.18 -0.8,2.36 -1.23,3.53 -0.87,2.33 -1.82,4.64 -2.87,6.91 -1.04,2.27 -2.21,4.5 -3.57,6.63 -1.38,2.11 -2.9,4.21 -5.1,5.77 -1.09,0.78 -2.52,1.29 -3.9,1.29 -1.38,0.03 -2.69,-0.28 -3.92,-0.71 -2.45,-0.88 -4.63,-2.21 -6.68,-3.68 -4.08,-2.97 -7.68,-6.44 -10.99,-10.19 v 0 l -0.46,-0.51 0.62,-0.28 c 6.21,-2.79 12.62,-5.09 19.07,-7.22 3.23,-1.05 6.47,-2.05 9.73,-3.01 l 4.89,-1.4 2.46,-0.68 1.23,-0.33 0.62,-0.16 0.31,-0.08 c 0.01,0 0.22,-0.06 0.37,-0.05 0.17,0.01 0.32,0.07 0.43,0.11 z"
   id="path40" />
	</g>
	<path
   class="st11"
   d="m 318.45,164.13 c 0,0 10.89,-27.26 4.27,-50.72 -6.62,-23.46 -16.51,-26.85 -31,-22.45 -14.49,4.4 -31.02,10.41 -31.02,10.41 0,0 -21.49,7.45 -14.55,23.17 6.94,15.72 16.24,48.7 33.76,52.53 0.02,0 16.52,-7.39 38.54,-12.94 z"
   id="path41" />
	<path
   class="st12"
   d="m 288.86,173.25 c 0,0 -7.64,-3.9 -13.74,-13.23 -6.1,-9.34 -18.09,-34.62 -19.22,-41.27 -1.13,-6.65 0.29,-16.03 14.34,-20.74 0,0 -16.81,5.09 -20.5,10.05 -3.69,4.96 -6.68,8.9 -3.57,16.48 3.11,7.58 8.1,22.96 13.61,32.08 0,0 6.12,15.83 20.15,20.45 0,0 6.73,-3.16 8.93,-3.82 z"
   id="path42" />
	<path
   class="st3"
   d="m 307.1,167.27 c 0,0 10.73,-29.91 -4.63,-51.42 0,0 -3.5,-5.91 -15.15,-1.29 -11.65,4.62 -14.75,7.87 -13.25,11.89 1.5,4.02 6.43,24.77 23.2,43.97 z"
   id="path43" />
	<path
   class="st4"
   d="m 317.61,164.45 c 0,0 11.74,-27.58 5.12,-51.04 -6.62,-23.46 -16.51,-26.85 -31,-22.45 -14.49,4.4 -31.02,10.41 -31.02,10.41 0,0 -21.49,7.45 -14.55,23.17 6.94,15.72 16.74,48.54 34.27,52.37 0,0 15.15,-6.92 37.18,-12.46 z"
   id="path44" />
</g>
</svg>
